<?xml version="1.0" encoding="utf-8" standalone="no"?>
<!DOCTYPE svg PUBLIC "-//W3C//DTD SVG 1.1//EN"
  "http://www.w3.org/Graphics/SVG/1.1/DTD/svg11.dtd">
<svg xmlns:xlink="http://www.w3.org/1999/xlink" width="1787.220313pt" height="486.866719pt" viewBox="0 0 1787.220313 486.866719" xmlns="http://www.w3.org/2000/svg" version="1.1">
 <metadata>
  <rdf:RDF xmlns:dc="http://purl.org/dc/elements/1.1/" xmlns:cc="http://creativecommons.org/ns#" xmlns:rdf="http://www.w3.org/1999/02/22-rdf-syntax-ns#">
   <cc:Work>
    <dc:type rdf:resource="http://purl.org/dc/dcmitype/StillImage"/>
    <dc:date>2024-05-30T14:49:23.693379</dc:date>
    <dc:format>image/svg+xml</dc:format>
    <dc:creator>
     <cc:Agent>
      <dc:title>Matplotlib v3.8.3, https://matplotlib.org/</dc:title>
     </cc:Agent>
    </dc:creator>
   </cc:Work>
  </rdf:RDF>
 </metadata>
 <defs>
  <style type="text/css">*{stroke-linejoin: round; stroke-linecap: butt}</style>
 </defs>
 <g id="figure_1">
  <g id="patch_1">
   <path d="M 0 486.866719 
L 1787.220313 486.866719 
L 1787.220313 0 
L 0 0 
L 0 486.866719 
z
" style="fill: none"/>
  </g>
  <g id="axes_1">
   <g id="patch_2">
    <path d="M 106.020313 420.276094 
L 1780.020313 420.276094 
L 1780.020313 32.196094 
L 106.020313 32.196094 
z
" style="fill: #ffffff"/>
   </g>
   <g id="matplotlib.axis_1">
    <g id="xtick_1">
     <g id="line2d_1">
      <defs>
       <path id="m2e2a7f55fa" d="M 0 0 
L 0 3.5 
" style="stroke: #000000; stroke-width: 0.8"/>
      </defs>
      <g>
       <use xlink:href="#m2e2a7f55fa" x="182.111222" y="420.276094" style="stroke: #000000; stroke-width: 0.8"/>
      </g>
     </g>
     <g id="text_1">
      <!-- 0 -->
      <g transform="translate(174.158097 446.272187) scale(0.25 -0.25)">
       <defs>
        <path id="DejaVuSans-30" d="M 2034 4250 
Q 1547 4250 1301 3770 
Q 1056 3291 1056 2328 
Q 1056 1369 1301 889 
Q 1547 409 2034 409 
Q 2525 409 2770 889 
Q 3016 1369 3016 2328 
Q 3016 3291 2770 3770 
Q 2525 4250 2034 4250 
z
M 2034 4750 
Q 2819 4750 3233 4129 
Q 3647 3509 3647 2328 
Q 3647 1150 3233 529 
Q 2819 -91 2034 -91 
Q 1250 -91 836 529 
Q 422 1150 422 2328 
Q 422 3509 836 4129 
Q 1250 4750 2034 4750 
z
" transform="scale(0.015625)"/>
       </defs>
       <use xlink:href="#DejaVuSans-30"/>
      </g>
     </g>
    </g>
    <g id="xtick_2">
     <g id="line2d_2">
      <g>
       <use xlink:href="#m2e2a7f55fa" x="386.382118" y="420.276094" style="stroke: #000000; stroke-width: 0.8"/>
      </g>
     </g>
     <g id="text_2">
      <!-- 20 -->
      <g transform="translate(370.475868 446.272187) scale(0.25 -0.25)">
       <defs>
        <path id="DejaVuSans-32" d="M 1228 531 
L 3431 531 
L 3431 0 
L 469 0 
L 469 531 
Q 828 903 1448 1529 
Q 2069 2156 2228 2338 
Q 2531 2678 2651 2914 
Q 2772 3150 2772 3378 
Q 2772 3750 2511 3984 
Q 2250 4219 1831 4219 
Q 1534 4219 1204 4116 
Q 875 4013 500 3803 
L 500 4441 
Q 881 4594 1212 4672 
Q 1544 4750 1819 4750 
Q 2544 4750 2975 4387 
Q 3406 4025 3406 3419 
Q 3406 3131 3298 2873 
Q 3191 2616 2906 2266 
Q 2828 2175 2409 1742 
Q 1991 1309 1228 531 
z
" transform="scale(0.015625)"/>
       </defs>
       <use xlink:href="#DejaVuSans-32"/>
       <use xlink:href="#DejaVuSans-30" x="63.623047"/>
      </g>
     </g>
    </g>
    <g id="xtick_3">
     <g id="line2d_3">
      <g>
       <use xlink:href="#m2e2a7f55fa" x="590.653015" y="420.276094" style="stroke: #000000; stroke-width: 0.8"/>
      </g>
     </g>
     <g id="text_3">
      <!-- 40 -->
      <g transform="translate(574.746765 446.272187) scale(0.25 -0.25)">
       <defs>
        <path id="DejaVuSans-34" d="M 2419 4116 
L 825 1625 
L 2419 1625 
L 2419 4116 
z
M 2253 4666 
L 3047 4666 
L 3047 1625 
L 3713 1625 
L 3713 1100 
L 3047 1100 
L 3047 0 
L 2419 0 
L 2419 1100 
L 313 1100 
L 313 1709 
L 2253 4666 
z
" transform="scale(0.015625)"/>
       </defs>
       <use xlink:href="#DejaVuSans-34"/>
       <use xlink:href="#DejaVuSans-30" x="63.623047"/>
      </g>
     </g>
    </g>
    <g id="xtick_4">
     <g id="line2d_4">
      <g>
       <use xlink:href="#m2e2a7f55fa" x="794.923912" y="420.276094" style="stroke: #000000; stroke-width: 0.8"/>
      </g>
     </g>
     <g id="text_4">
      <!-- 60 -->
      <g transform="translate(779.017662 446.272187) scale(0.25 -0.25)">
       <defs>
        <path id="DejaVuSans-36" d="M 2113 2584 
Q 1688 2584 1439 2293 
Q 1191 2003 1191 1497 
Q 1191 994 1439 701 
Q 1688 409 2113 409 
Q 2538 409 2786 701 
Q 3034 994 3034 1497 
Q 3034 2003 2786 2293 
Q 2538 2584 2113 2584 
z
M 3366 4563 
L 3366 3988 
Q 3128 4100 2886 4159 
Q 2644 4219 2406 4219 
Q 1781 4219 1451 3797 
Q 1122 3375 1075 2522 
Q 1259 2794 1537 2939 
Q 1816 3084 2150 3084 
Q 2853 3084 3261 2657 
Q 3669 2231 3669 1497 
Q 3669 778 3244 343 
Q 2819 -91 2113 -91 
Q 1303 -91 875 529 
Q 447 1150 447 2328 
Q 447 3434 972 4092 
Q 1497 4750 2381 4750 
Q 2619 4750 2861 4703 
Q 3103 4656 3366 4563 
z
" transform="scale(0.015625)"/>
       </defs>
       <use xlink:href="#DejaVuSans-36"/>
       <use xlink:href="#DejaVuSans-30" x="63.623047"/>
      </g>
     </g>
    </g>
    <g id="xtick_5">
     <g id="line2d_5">
      <g>
       <use xlink:href="#m2e2a7f55fa" x="999.194809" y="420.276094" style="stroke: #000000; stroke-width: 0.8"/>
      </g>
     </g>
     <g id="text_5">
      <!-- 80 -->
      <g transform="translate(983.288559 446.272187) scale(0.25 -0.25)">
       <defs>
        <path id="DejaVuSans-38" d="M 2034 2216 
Q 1584 2216 1326 1975 
Q 1069 1734 1069 1313 
Q 1069 891 1326 650 
Q 1584 409 2034 409 
Q 2484 409 2743 651 
Q 3003 894 3003 1313 
Q 3003 1734 2745 1975 
Q 2488 2216 2034 2216 
z
M 1403 2484 
Q 997 2584 770 2862 
Q 544 3141 544 3541 
Q 544 4100 942 4425 
Q 1341 4750 2034 4750 
Q 2731 4750 3128 4425 
Q 3525 4100 3525 3541 
Q 3525 3141 3298 2862 
Q 3072 2584 2669 2484 
Q 3125 2378 3379 2068 
Q 3634 1759 3634 1313 
Q 3634 634 3220 271 
Q 2806 -91 2034 -91 
Q 1263 -91 848 271 
Q 434 634 434 1313 
Q 434 1759 690 2068 
Q 947 2378 1403 2484 
z
M 1172 3481 
Q 1172 3119 1398 2916 
Q 1625 2713 2034 2713 
Q 2441 2713 2670 2916 
Q 2900 3119 2900 3481 
Q 2900 3844 2670 4047 
Q 2441 4250 2034 4250 
Q 1625 4250 1398 4047 
Q 1172 3844 1172 3481 
z
" transform="scale(0.015625)"/>
       </defs>
       <use xlink:href="#DejaVuSans-38"/>
       <use xlink:href="#DejaVuSans-30" x="63.623047"/>
      </g>
     </g>
    </g>
    <g id="xtick_6">
     <g id="line2d_6">
      <g>
       <use xlink:href="#m2e2a7f55fa" x="1203.465706" y="420.276094" style="stroke: #000000; stroke-width: 0.8"/>
      </g>
     </g>
     <g id="text_6">
      <!-- 100 -->
      <g transform="translate(1179.606331 446.272187) scale(0.25 -0.25)">
       <defs>
        <path id="DejaVuSans-31" d="M 794 531 
L 1825 531 
L 1825 4091 
L 703 3866 
L 703 4441 
L 1819 4666 
L 2450 4666 
L 2450 531 
L 3481 531 
L 3481 0 
L 794 0 
L 794 531 
z
" transform="scale(0.015625)"/>
       </defs>
       <use xlink:href="#DejaVuSans-31"/>
       <use xlink:href="#DejaVuSans-30" x="63.623047"/>
       <use xlink:href="#DejaVuSans-30" x="127.246094"/>
      </g>
     </g>
    </g>
    <g id="xtick_7">
     <g id="line2d_7">
      <g>
       <use xlink:href="#m2e2a7f55fa" x="1407.736603" y="420.276094" style="stroke: #000000; stroke-width: 0.8"/>
      </g>
     </g>
     <g id="text_7">
      <!-- 120 -->
      <g transform="translate(1383.877228 446.272187) scale(0.25 -0.25)">
       <use xlink:href="#DejaVuSans-31"/>
       <use xlink:href="#DejaVuSans-32" x="63.623047"/>
       <use xlink:href="#DejaVuSans-30" x="127.246094"/>
      </g>
     </g>
    </g>
    <g id="xtick_8">
     <g id="line2d_8">
      <g>
       <use xlink:href="#m2e2a7f55fa" x="1612.0075" y="420.276094" style="stroke: #000000; stroke-width: 0.8"/>
      </g>
     </g>
     <g id="text_8">
      <!-- 140 -->
      <g transform="translate(1588.148125 446.272187) scale(0.25 -0.25)">
       <use xlink:href="#DejaVuSans-31"/>
       <use xlink:href="#DejaVuSans-34" x="63.623047"/>
       <use xlink:href="#DejaVuSans-30" x="127.246094"/>
      </g>
     </g>
    </g>
    <g id="text_9">
     <!-- Time -->
     <g transform="translate(912.436328 474.4675) scale(0.25 -0.25)">
      <defs>
       <path id="DejaVuSans-54" d="M -19 4666 
L 3928 4666 
L 3928 4134 
L 2272 4134 
L 2272 0 
L 1638 0 
L 1638 4134 
L -19 4134 
L -19 4666 
z
" transform="scale(0.015625)"/>
       <path id="DejaVuSans-69" d="M 603 3500 
L 1178 3500 
L 1178 0 
L 603 0 
L 603 3500 
z
M 603 4863 
L 1178 4863 
L 1178 4134 
L 603 4134 
L 603 4863 
z
" transform="scale(0.015625)"/>
       <path id="DejaVuSans-6d" d="M 3328 2828 
Q 3544 3216 3844 3400 
Q 4144 3584 4550 3584 
Q 5097 3584 5394 3201 
Q 5691 2819 5691 2113 
L 5691 0 
L 5113 0 
L 5113 2094 
Q 5113 2597 4934 2840 
Q 4756 3084 4391 3084 
Q 3944 3084 3684 2787 
Q 3425 2491 3425 1978 
L 3425 0 
L 2847 0 
L 2847 2094 
Q 2847 2600 2669 2842 
Q 2491 3084 2119 3084 
Q 1678 3084 1418 2786 
Q 1159 2488 1159 1978 
L 1159 0 
L 581 0 
L 581 3500 
L 1159 3500 
L 1159 2956 
Q 1356 3278 1631 3431 
Q 1906 3584 2284 3584 
Q 2666 3584 2933 3390 
Q 3200 3197 3328 2828 
z
" transform="scale(0.015625)"/>
       <path id="DejaVuSans-65" d="M 3597 1894 
L 3597 1613 
L 953 1613 
Q 991 1019 1311 708 
Q 1631 397 2203 397 
Q 2534 397 2845 478 
Q 3156 559 3463 722 
L 3463 178 
Q 3153 47 2828 -22 
Q 2503 -91 2169 -91 
Q 1331 -91 842 396 
Q 353 884 353 1716 
Q 353 2575 817 3079 
Q 1281 3584 2069 3584 
Q 2775 3584 3186 3129 
Q 3597 2675 3597 1894 
z
M 3022 2063 
Q 3016 2534 2758 2815 
Q 2500 3097 2075 3097 
Q 1594 3097 1305 2825 
Q 1016 2553 972 2059 
L 3022 2063 
z
" transform="scale(0.015625)"/>
      </defs>
      <use xlink:href="#DejaVuSans-54"/>
      <use xlink:href="#DejaVuSans-69" x="57.958984"/>
      <use xlink:href="#DejaVuSans-6d" x="85.742188"/>
      <use xlink:href="#DejaVuSans-65" x="183.154297"/>
     </g>
    </g>
   </g>
   <g id="matplotlib.axis_2">
    <g id="ytick_1">
     <g id="line2d_9">
      <defs>
       <path id="mdeb98204c8" d="M 0 0 
L -3.5 0 
" style="stroke: #000000; stroke-width: 0.8"/>
      </defs>
      <g>
       <use xlink:href="#mdeb98204c8" x="106.020313" y="389.004783" style="stroke: #000000; stroke-width: 0.8"/>
      </g>
     </g>
     <g id="text_10">
      <!-- 250 -->
      <g transform="translate(51.301563 398.502829) scale(0.25 -0.25)">
       <defs>
        <path id="DejaVuSans-35" d="M 691 4666 
L 3169 4666 
L 3169 4134 
L 1269 4134 
L 1269 2991 
Q 1406 3038 1543 3061 
Q 1681 3084 1819 3084 
Q 2600 3084 3056 2656 
Q 3513 2228 3513 1497 
Q 3513 744 3044 326 
Q 2575 -91 1722 -91 
Q 1428 -91 1123 -41 
Q 819 9 494 109 
L 494 744 
Q 775 591 1075 516 
Q 1375 441 1709 441 
Q 2250 441 2565 725 
Q 2881 1009 2881 1497 
Q 2881 1984 2565 2268 
Q 2250 2553 1709 2553 
Q 1456 2553 1204 2497 
Q 953 2441 691 2322 
L 691 4666 
z
" transform="scale(0.015625)"/>
       </defs>
       <use xlink:href="#DejaVuSans-32"/>
       <use xlink:href="#DejaVuSans-35" x="63.623047"/>
       <use xlink:href="#DejaVuSans-30" x="127.246094"/>
      </g>
     </g>
    </g>
    <g id="ytick_2">
     <g id="line2d_10">
      <g>
       <use xlink:href="#mdeb98204c8" x="106.020313" y="342.390064" style="stroke: #000000; stroke-width: 0.8"/>
      </g>
     </g>
     <g id="text_11">
      <!-- 500 -->
      <g transform="translate(51.301563 351.888111) scale(0.25 -0.25)">
       <use xlink:href="#DejaVuSans-35"/>
       <use xlink:href="#DejaVuSans-30" x="63.623047"/>
       <use xlink:href="#DejaVuSans-30" x="127.246094"/>
      </g>
     </g>
    </g>
    <g id="ytick_3">
     <g id="line2d_11">
      <g>
       <use xlink:href="#mdeb98204c8" x="106.020313" y="295.775346" style="stroke: #000000; stroke-width: 0.8"/>
      </g>
     </g>
     <g id="text_12">
      <!-- 750 -->
      <g transform="translate(51.301563 305.273393) scale(0.25 -0.25)">
       <defs>
        <path id="DejaVuSans-37" d="M 525 4666 
L 3525 4666 
L 3525 4397 
L 1831 0 
L 1172 0 
L 2766 4134 
L 525 4134 
L 525 4666 
z
" transform="scale(0.015625)"/>
       </defs>
       <use xlink:href="#DejaVuSans-37"/>
       <use xlink:href="#DejaVuSans-35" x="63.623047"/>
       <use xlink:href="#DejaVuSans-30" x="127.246094"/>
      </g>
     </g>
    </g>
    <g id="ytick_4">
     <g id="line2d_12">
      <g>
       <use xlink:href="#mdeb98204c8" x="106.020313" y="249.160628" style="stroke: #000000; stroke-width: 0.8"/>
      </g>
     </g>
     <g id="text_13">
      <!-- 1000 -->
      <g transform="translate(35.395313 258.658675) scale(0.25 -0.25)">
       <use xlink:href="#DejaVuSans-31"/>
       <use xlink:href="#DejaVuSans-30" x="63.623047"/>
       <use xlink:href="#DejaVuSans-30" x="127.246094"/>
       <use xlink:href="#DejaVuSans-30" x="190.869141"/>
      </g>
     </g>
    </g>
    <g id="ytick_5">
     <g id="line2d_13">
      <g>
       <use xlink:href="#mdeb98204c8" x="106.020313" y="202.54591" style="stroke: #000000; stroke-width: 0.8"/>
      </g>
     </g>
     <g id="text_14">
      <!-- 1250 -->
      <g transform="translate(35.395313 212.043957) scale(0.25 -0.25)">
       <use xlink:href="#DejaVuSans-31"/>
       <use xlink:href="#DejaVuSans-32" x="63.623047"/>
       <use xlink:href="#DejaVuSans-35" x="127.246094"/>
       <use xlink:href="#DejaVuSans-30" x="190.869141"/>
      </g>
     </g>
    </g>
    <g id="ytick_6">
     <g id="line2d_14">
      <g>
       <use xlink:href="#mdeb98204c8" x="106.020313" y="155.931192" style="stroke: #000000; stroke-width: 0.8"/>
      </g>
     </g>
     <g id="text_15">
      <!-- 1500 -->
      <g transform="translate(35.395313 165.429239) scale(0.25 -0.25)">
       <use xlink:href="#DejaVuSans-31"/>
       <use xlink:href="#DejaVuSans-35" x="63.623047"/>
       <use xlink:href="#DejaVuSans-30" x="127.246094"/>
       <use xlink:href="#DejaVuSans-30" x="190.869141"/>
      </g>
     </g>
    </g>
    <g id="ytick_7">
     <g id="line2d_15">
      <g>
       <use xlink:href="#mdeb98204c8" x="106.020313" y="109.316474" style="stroke: #000000; stroke-width: 0.8"/>
      </g>
     </g>
     <g id="text_16">
      <!-- 1750 -->
      <g transform="translate(35.395313 118.814521) scale(0.25 -0.25)">
       <use xlink:href="#DejaVuSans-31"/>
       <use xlink:href="#DejaVuSans-37" x="63.623047"/>
       <use xlink:href="#DejaVuSans-35" x="127.246094"/>
       <use xlink:href="#DejaVuSans-30" x="190.869141"/>
      </g>
     </g>
    </g>
    <g id="ytick_8">
     <g id="line2d_16">
      <g>
       <use xlink:href="#mdeb98204c8" x="106.020313" y="62.701756" style="stroke: #000000; stroke-width: 0.8"/>
      </g>
     </g>
     <g id="text_17">
      <!-- 2000 -->
      <g transform="translate(35.395313 72.199803) scale(0.25 -0.25)">
       <use xlink:href="#DejaVuSans-32"/>
       <use xlink:href="#DejaVuSans-30" x="63.623047"/>
       <use xlink:href="#DejaVuSans-30" x="127.246094"/>
       <use xlink:href="#DejaVuSans-30" x="190.869141"/>
      </g>
     </g>
    </g>
    <g id="text_18">
     <!-- Flow -->
     <g transform="translate(26.196094 254.769297) rotate(-90) scale(0.25 -0.25)">
      <defs>
       <path id="DejaVuSans-46" d="M 628 4666 
L 3309 4666 
L 3309 4134 
L 1259 4134 
L 1259 2759 
L 3109 2759 
L 3109 2228 
L 1259 2228 
L 1259 0 
L 628 0 
L 628 4666 
z
" transform="scale(0.015625)"/>
       <path id="DejaVuSans-6c" d="M 603 4863 
L 1178 4863 
L 1178 0 
L 603 0 
L 603 4863 
z
" transform="scale(0.015625)"/>
       <path id="DejaVuSans-6f" d="M 1959 3097 
Q 1497 3097 1228 2736 
Q 959 2375 959 1747 
Q 959 1119 1226 758 
Q 1494 397 1959 397 
Q 2419 397 2687 759 
Q 2956 1122 2956 1747 
Q 2956 2369 2687 2733 
Q 2419 3097 1959 3097 
z
M 1959 3584 
Q 2709 3584 3137 3096 
Q 3566 2609 3566 1747 
Q 3566 888 3137 398 
Q 2709 -91 1959 -91 
Q 1206 -91 779 398 
Q 353 888 353 1747 
Q 353 2609 779 3096 
Q 1206 3584 1959 3584 
z
" transform="scale(0.015625)"/>
       <path id="DejaVuSans-77" d="M 269 3500 
L 844 3500 
L 1563 769 
L 2278 3500 
L 2956 3500 
L 3675 769 
L 4391 3500 
L 4966 3500 
L 4050 0 
L 3372 0 
L 2619 2869 
L 1863 0 
L 1184 0 
L 269 3500 
z
" transform="scale(0.015625)"/>
      </defs>
      <use xlink:href="#DejaVuSans-46"/>
      <use xlink:href="#DejaVuSans-6c" x="57.519531"/>
      <use xlink:href="#DejaVuSans-6f" x="85.302734"/>
      <use xlink:href="#DejaVuSans-77" x="146.484375"/>
     </g>
    </g>
   </g>
   <g id="line2d_17">
    <path d="M 182.111222 208.512594 
L 192.324766 156.490569 
L 202.538311 130.759244 
L 212.751856 170.847902 
L 222.965401 140.268647 
L 233.178946 123.673807 
L 243.392491 120.690465 
L 253.606036 120.131089 
L 263.81958 132.250915 
L 274.033125 114.164405 
L 284.24667 105.587297 
L 294.460215 127.962361 
L 304.67376 119.94463 
L 314.887305 173.644785 
L 325.100849 207.020923 
L 335.314394 264.450256 
L 345.527939 281.418013 
L 355.741484 318.896247 
L 365.955029 346.49216 
L 376.168574 381.17351 
L 386.382118 402.056904 
L 396.595663 397.76835 
L 406.809208 372.223484 
L 417.022753 296.707641 
L 427.236298 158.728075 
L 437.449843 129.640491 
L 447.663388 172.526032 
L 457.876932 145.862413 
L 468.090477 101.298743 
L 478.304022 97.010188 
L 488.517567 97.383106 
L 498.731112 92.908093 
L 508.944657 86.382033 
L 519.158201 104.655002 
L 529.371746 81.161184 
L 539.585291 66.244475 
L 549.798836 58.78612 
L 560.012381 127.030067 
L 570.225926 193.782343 
L 580.439471 191.544837 
L 590.653015 220.81888 
L 600.86656 266.687762 
L 611.080105 315.167069 
L 621.29365 361.222411 
L 631.507195 390.869371 
L 641.72074 391.801666 
L 651.934284 372.409943 
L 662.147829 291.486792 
L 672.361374 165.254136 
L 682.574919 129.640491 
L 692.788464 135.420716 
L 703.002009 128.335279 
L 713.215554 131.318621 
L 723.429098 119.198794 
L 733.642643 97.942483 
L 743.856188 89.551834 
L 754.069733 94.399764 
L 764.283278 69.227816 
L 774.496823 72.397617 
L 784.710367 56.175695 
L 794.923912 90.857046 
L 805.137457 94.586223 
L 815.351002 194.34172 
L 825.564547 187.6292 
L 835.778092 194.34172 
L 845.991636 242.26165 
L 856.205181 300.996195 
L 866.418726 352.645302 
L 876.632271 380.054757 
L 886.845816 385.089146 
L 897.059361 356.747398 
L 907.272906 285.520108 
L 917.48645 161.897876 
L 927.699995 125.911314 
L 937.91354 124.606102 
L 948.127085 117.893582 
L 958.34063 97.569565 
L 968.554175 95.891435 
L 978.767719 98.501859 
L 988.981264 91.043505 
L 999.194809 96.450812 
L 1009.408354 75.940336 
L 1019.621899 75.940336 
L 1029.835444 81.534102 
L 1040.048989 98.315401 
L 1050.262533 129.267573 
L 1060.476078 192.477131 
L 1070.689623 191.544837 
L 1080.903168 200.121945 
L 1091.116713 214.665737 
L 1101.330258 261.280455 
L 1111.543802 320.201459 
L 1121.757347 366.629718 
L 1131.970892 377.630791 
L 1142.184437 358.05261 
L 1152.397982 293.351381 
L 1162.611527 177.933339 
L 1172.825071 135.420716 
L 1183.038616 138.03114 
L 1193.252161 106.333132 
L 1203.465706 91.602881 
L 1213.679251 72.770535 
L 1223.892796 65.498639 
L 1234.106341 81.161184 
L 1244.319885 93.840388 
L 1254.53343 55.42986 
L 1264.746975 71.465323 
L 1274.96052 71.278864 
L 1285.174065 49.836094 
L 1295.38761 66.99031 
L 1305.601154 162.084335 
L 1315.814699 169.356231 
L 1326.028244 185.951071 
L 1336.241789 195.646932 
L 1346.455334 207.020923 
L 1356.668879 224.175139 
L 1366.882424 296.707641 
L 1377.095968 331.948368 
L 1387.309513 334.185874 
L 1397.523058 343.1359 
L 1407.736603 319.828541 
L 1417.950148 281.231554 
L 1428.163693 232.752248 
L 1438.377237 182.967729 
L 1448.590782 152.202015 
L 1458.804327 126.284231 
L 1469.017872 111.367522 
L 1479.231417 131.132162 
L 1489.444962 104.655002 
L 1499.658507 98.128942 
L 1509.872051 99.99353 
L 1520.085596 138.776976 
L 1530.299141 116.961288 
L 1540.512686 149.964508 
L 1550.726231 161.711417 
L 1560.939776 172.712491 
L 1571.15332 168.983313 
L 1581.366865 192.850049 
L 1591.58041 187.069824 
L 1601.793955 215.038655 
L 1612.0075 273.959658 
L 1622.221045 319.269164 
L 1632.434589 342.017147 
L 1642.648134 358.798445 
L 1652.861679 365.138047 
L 1663.075224 334.558792 
L 1673.288769 302.860784 
L 1683.502314 236.854343 
L 1693.715859 189.680248 
L 1703.929403 144.930119 
L 1703.929403 144.930119 
" clip-path="url(#p8b62be99dd)" style="fill: none; stroke: #000000; stroke-width: 1.5; stroke-linecap: square"/>
   </g>
   <g id="line2d_18">
    <path d="M 182.111222 199.233534 
L 192.324766 130.405355 
L 202.538311 157.638456 
L 212.751856 150.738704 
L 222.965401 163.799611 
L 233.178946 140.559329 
L 243.392491 139.44465 
L 253.606036 127.19513 
L 263.81958 125.693991 
L 274.033125 134.628858 
L 284.24667 126.779627 
L 294.460215 116.989785 
L 304.67376 141.91004 
L 314.887305 172.70111 
L 325.100849 236.569442 
L 335.314394 220.522325 
L 345.527939 276.745172 
L 355.741484 304.920321 
L 365.955029 356.751244 
L 376.168574 373.473159 
L 386.382118 399.961495 
L 396.595663 402.636094 
L 406.809208 377.251523 
L 417.022753 309.569126 
L 427.236298 217.788149 
L 437.449843 136.529409 
L 447.663388 136.122168 
L 457.876932 160.8706 
L 468.090477 138.599849 
L 478.304022 110.253252 
L 488.517567 107.762938 
L 498.731112 106.100263 
L 519.158201 99.176703 
L 529.371746 114.826957 
L 539.585291 99.724813 
L 549.798836 94.197099 
L 560.012381 131.55875 
L 570.225926 204.180362 
L 580.439471 223.529453 
L 590.653015 217.541169 
L 600.86656 269.823945 
L 611.080105 321.296643 
L 621.29365 359.8553 
L 631.507195 385.397411 
L 641.72074 393.138948 
L 651.934284 369.223117 
L 662.147829 298.236868 
L 672.361374 159.664125 
L 682.574919 122.623314 
L 692.788464 143.857593 
L 703.002009 130.504343 
L 713.215554 110.908612 
L 723.429098 107.324241 
L 733.642643 120.305302 
L 743.856188 94.282044 
L 754.069733 93.706416 
L 764.283278 95.003935 
L 774.496823 73.81008 
L 784.710367 68.74601 
L 794.923912 68.554794 
L 805.137457 129.45162 
L 815.351002 155.770294 
L 825.564547 212.856298 
L 835.778092 193.262707 
L 845.991636 225.701658 
L 856.205181 294.393031 
L 866.418726 354.320325 
L 876.632271 379.398497 
L 886.845816 387.183007 
L 897.059361 364.495478 
L 907.272906 283.652151 
L 917.48645 183.820655 
L 927.699995 122.771239 
L 937.91354 125.683407 
L 948.127085 125.635631 
L 958.34063 115.692721 
L 968.554175 92.506428 
L 978.767719 102.143885 
L 988.981264 88.55945 
L 999.194809 87.991196 
L 1009.408354 88.966464 
L 1019.621899 80.750574 
L 1029.835444 73.163619 
L 1040.048989 84.537246 
L 1050.262533 114.293415 
L 1060.476078 175.090524 
L 1070.689623 201.589216 
L 1080.903168 186.093646 
L 1091.116713 221.172587 
L 1101.330258 264.298382 
L 1111.543802 312.742762 
L 1121.757347 353.960575 
L 1131.970892 371.149559 
L 1142.184437 357.383729 
L 1152.397982 298.696778 
L 1162.611527 185.798867 
L 1172.825071 135.690754 
L 1183.038616 126.877863 
L 1193.252161 127.471814 
L 1203.465706 107.357131 
L 1213.679251 92.569272 
L 1223.892796 91.874398 
L 1234.106341 76.427696 
L 1244.319885 78.210186 
L 1254.53343 90.511851 
L 1264.746975 74.955099 
L 1274.96052 72.775679 
L 1285.174065 78.816291 
L 1295.38761 94.994921 
L 1305.601154 143.012041 
L 1315.814699 179.196739 
L 1326.028244 163.559208 
L 1336.241789 201.753483 
L 1346.455334 249.596628 
L 1356.668879 252.169406 
L 1366.882424 290.89192 
L 1377.095968 332.457806 
L 1387.309513 339.821919 
L 1397.523058 337.423207 
L 1407.736603 332.087825 
L 1417.950148 274.807759 
L 1428.163693 235.176532 
L 1438.377237 187.264932 
L 1448.590782 143.875825 
L 1458.804327 107.774956 
L 1469.017872 114.300835 
L 1479.231417 120.307555 
L 1489.444962 119.554095 
L 1499.658507 93.144763 
L 1509.872051 92.055372 
L 1520.085596 87.81646 
L 1530.299141 115.235473 
L 1540.512686 124.663482 
L 1550.726231 170.332249 
L 1560.939776 176.109902 
L 1571.15332 190.848552 
L 1581.366865 182.890705 
L 1591.58041 204.268014 
L 1601.793955 212.833742 
L 1612.0075 262.222821 
L 1622.221045 300.232811 
L 1632.434589 339.311581 
L 1642.648134 346.773111 
L 1652.861679 353.174339 
L 1663.075224 343.968649 
L 1673.288769 292.076305 
L 1683.502314 266.251341 
L 1693.715859 185.353182 
L 1703.929403 155.640192 
L 1703.929403 155.640192 
" clip-path="url(#p8b62be99dd)" style="fill: none; stroke: #7028e4; stroke-width: 3; stroke-linecap: square"/>
   </g>
   <g id="patch_3">
    <path d="M 106.020313 420.276094 
L 106.020313 32.196094 
" style="fill: none; stroke: #000000; stroke-width: 0.8; stroke-linejoin: miter; stroke-linecap: square"/>
   </g>
   <g id="patch_4">
    <path d="M 1780.020313 420.276094 
L 1780.020313 32.196094 
" style="fill: none; stroke: #000000; stroke-width: 0.8; stroke-linejoin: miter; stroke-linecap: square"/>
   </g>
   <g id="patch_5">
    <path d="M 106.020313 420.276094 
L 1780.020312 420.276094 
" style="fill: none; stroke: #000000; stroke-width: 0.8; stroke-linejoin: miter; stroke-linecap: square"/>
   </g>
   <g id="patch_6">
    <path d="M 106.020313 32.196094 
L 1780.020312 32.196094 
" style="fill: none; stroke: #000000; stroke-width: 0.8; stroke-linejoin: miter; stroke-linecap: square"/>
   </g>
   <g id="text_19">
    <!-- Result of PatchTST -->
    <g transform="translate(826.869922 26.196094) scale(0.25 -0.25)">
     <defs>
      <path id="DejaVuSans-52" d="M 2841 2188 
Q 3044 2119 3236 1894 
Q 3428 1669 3622 1275 
L 4263 0 
L 3584 0 
L 2988 1197 
Q 2756 1666 2539 1819 
Q 2322 1972 1947 1972 
L 1259 1972 
L 1259 0 
L 628 0 
L 628 4666 
L 2053 4666 
Q 2853 4666 3247 4331 
Q 3641 3997 3641 3322 
Q 3641 2881 3436 2590 
Q 3231 2300 2841 2188 
z
M 1259 4147 
L 1259 2491 
L 2053 2491 
Q 2509 2491 2742 2702 
Q 2975 2913 2975 3322 
Q 2975 3731 2742 3939 
Q 2509 4147 2053 4147 
L 1259 4147 
z
" transform="scale(0.015625)"/>
      <path id="DejaVuSans-73" d="M 2834 3397 
L 2834 2853 
Q 2591 2978 2328 3040 
Q 2066 3103 1784 3103 
Q 1356 3103 1142 2972 
Q 928 2841 928 2578 
Q 928 2378 1081 2264 
Q 1234 2150 1697 2047 
L 1894 2003 
Q 2506 1872 2764 1633 
Q 3022 1394 3022 966 
Q 3022 478 2636 193 
Q 2250 -91 1575 -91 
Q 1294 -91 989 -36 
Q 684 19 347 128 
L 347 722 
Q 666 556 975 473 
Q 1284 391 1588 391 
Q 1994 391 2212 530 
Q 2431 669 2431 922 
Q 2431 1156 2273 1281 
Q 2116 1406 1581 1522 
L 1381 1569 
Q 847 1681 609 1914 
Q 372 2147 372 2553 
Q 372 3047 722 3315 
Q 1072 3584 1716 3584 
Q 2034 3584 2315 3537 
Q 2597 3491 2834 3397 
z
" transform="scale(0.015625)"/>
      <path id="DejaVuSans-75" d="M 544 1381 
L 544 3500 
L 1119 3500 
L 1119 1403 
Q 1119 906 1312 657 
Q 1506 409 1894 409 
Q 2359 409 2629 706 
Q 2900 1003 2900 1516 
L 2900 3500 
L 3475 3500 
L 3475 0 
L 2900 0 
L 2900 538 
Q 2691 219 2414 64 
Q 2138 -91 1772 -91 
Q 1169 -91 856 284 
Q 544 659 544 1381 
z
M 1991 3584 
L 1991 3584 
z
" transform="scale(0.015625)"/>
      <path id="DejaVuSans-74" d="M 1172 4494 
L 1172 3500 
L 2356 3500 
L 2356 3053 
L 1172 3053 
L 1172 1153 
Q 1172 725 1289 603 
Q 1406 481 1766 481 
L 2356 481 
L 2356 0 
L 1766 0 
Q 1100 0 847 248 
Q 594 497 594 1153 
L 594 3053 
L 172 3053 
L 172 3500 
L 594 3500 
L 594 4494 
L 1172 4494 
z
" transform="scale(0.015625)"/>
      <path id="DejaVuSans-20" transform="scale(0.015625)"/>
      <path id="DejaVuSans-66" d="M 2375 4863 
L 2375 4384 
L 1825 4384 
Q 1516 4384 1395 4259 
Q 1275 4134 1275 3809 
L 1275 3500 
L 2222 3500 
L 2222 3053 
L 1275 3053 
L 1275 0 
L 697 0 
L 697 3053 
L 147 3053 
L 147 3500 
L 697 3500 
L 697 3744 
Q 697 4328 969 4595 
Q 1241 4863 1831 4863 
L 2375 4863 
z
" transform="scale(0.015625)"/>
      <path id="DejaVuSans-50" d="M 1259 4147 
L 1259 2394 
L 2053 2394 
Q 2494 2394 2734 2622 
Q 2975 2850 2975 3272 
Q 2975 3691 2734 3919 
Q 2494 4147 2053 4147 
L 1259 4147 
z
M 628 4666 
L 2053 4666 
Q 2838 4666 3239 4311 
Q 3641 3956 3641 3272 
Q 3641 2581 3239 2228 
Q 2838 1875 2053 1875 
L 1259 1875 
L 1259 0 
L 628 0 
L 628 4666 
z
" transform="scale(0.015625)"/>
      <path id="DejaVuSans-61" d="M 2194 1759 
Q 1497 1759 1228 1600 
Q 959 1441 959 1056 
Q 959 750 1161 570 
Q 1363 391 1709 391 
Q 2188 391 2477 730 
Q 2766 1069 2766 1631 
L 2766 1759 
L 2194 1759 
z
M 3341 1997 
L 3341 0 
L 2766 0 
L 2766 531 
Q 2569 213 2275 61 
Q 1981 -91 1556 -91 
Q 1019 -91 701 211 
Q 384 513 384 1019 
Q 384 1609 779 1909 
Q 1175 2209 1959 2209 
L 2766 2209 
L 2766 2266 
Q 2766 2663 2505 2880 
Q 2244 3097 1772 3097 
Q 1472 3097 1187 3025 
Q 903 2953 641 2809 
L 641 3341 
Q 956 3463 1253 3523 
Q 1550 3584 1831 3584 
Q 2591 3584 2966 3190 
Q 3341 2797 3341 1997 
z
" transform="scale(0.015625)"/>
      <path id="DejaVuSans-63" d="M 3122 3366 
L 3122 2828 
Q 2878 2963 2633 3030 
Q 2388 3097 2138 3097 
Q 1578 3097 1268 2742 
Q 959 2388 959 1747 
Q 959 1106 1268 751 
Q 1578 397 2138 397 
Q 2388 397 2633 464 
Q 2878 531 3122 666 
L 3122 134 
Q 2881 22 2623 -34 
Q 2366 -91 2075 -91 
Q 1284 -91 818 406 
Q 353 903 353 1747 
Q 353 2603 823 3093 
Q 1294 3584 2113 3584 
Q 2378 3584 2631 3529 
Q 2884 3475 3122 3366 
z
" transform="scale(0.015625)"/>
      <path id="DejaVuSans-68" d="M 3513 2113 
L 3513 0 
L 2938 0 
L 2938 2094 
Q 2938 2591 2744 2837 
Q 2550 3084 2163 3084 
Q 1697 3084 1428 2787 
Q 1159 2491 1159 1978 
L 1159 0 
L 581 0 
L 581 4863 
L 1159 4863 
L 1159 2956 
Q 1366 3272 1645 3428 
Q 1925 3584 2291 3584 
Q 2894 3584 3203 3211 
Q 3513 2838 3513 2113 
z
" transform="scale(0.015625)"/>
      <path id="DejaVuSans-53" d="M 3425 4513 
L 3425 3897 
Q 3066 4069 2747 4153 
Q 2428 4238 2131 4238 
Q 1616 4238 1336 4038 
Q 1056 3838 1056 3469 
Q 1056 3159 1242 3001 
Q 1428 2844 1947 2747 
L 2328 2669 
Q 3034 2534 3370 2195 
Q 3706 1856 3706 1288 
Q 3706 609 3251 259 
Q 2797 -91 1919 -91 
Q 1588 -91 1214 -16 
Q 841 59 441 206 
L 441 856 
Q 825 641 1194 531 
Q 1563 422 1919 422 
Q 2459 422 2753 634 
Q 3047 847 3047 1241 
Q 3047 1584 2836 1778 
Q 2625 1972 2144 2069 
L 1759 2144 
Q 1053 2284 737 2584 
Q 422 2884 422 3419 
Q 422 4038 858 4394 
Q 1294 4750 2059 4750 
Q 2388 4750 2728 4690 
Q 3069 4631 3425 4513 
z
" transform="scale(0.015625)"/>
     </defs>
     <use xlink:href="#DejaVuSans-52"/>
     <use xlink:href="#DejaVuSans-65" x="64.982422"/>
     <use xlink:href="#DejaVuSans-73" x="126.505859"/>
     <use xlink:href="#DejaVuSans-75" x="178.605469"/>
     <use xlink:href="#DejaVuSans-6c" x="241.984375"/>
     <use xlink:href="#DejaVuSans-74" x="269.767578"/>
     <use xlink:href="#DejaVuSans-20" x="308.976562"/>
     <use xlink:href="#DejaVuSans-6f" x="340.763672"/>
     <use xlink:href="#DejaVuSans-66" x="401.945312"/>
     <use xlink:href="#DejaVuSans-20" x="437.150391"/>
     <use xlink:href="#DejaVuSans-50" x="468.9375"/>
     <use xlink:href="#DejaVuSans-61" x="524.740234"/>
     <use xlink:href="#DejaVuSans-74" x="586.019531"/>
     <use xlink:href="#DejaVuSans-63" x="625.228516"/>
     <use xlink:href="#DejaVuSans-68" x="680.208984"/>
     <use xlink:href="#DejaVuSans-54" x="743.587891"/>
     <use xlink:href="#DejaVuSans-53" x="804.671875"/>
     <use xlink:href="#DejaVuSans-54" x="868.148438"/>
    </g>
   </g>
   <g id="legend_1">
    <g id="patch_7">
     <path d="M 1567.45 125.586719 
L 1762.520313 125.586719 
Q 1767.520313 125.586719 1767.520313 120.586719 
L 1767.520313 49.696094 
Q 1767.520313 44.696094 1762.520313 44.696094 
L 1567.45 44.696094 
Q 1562.45 44.696094 1562.45 49.696094 
L 1562.45 120.586719 
Q 1562.45 125.586719 1567.45 125.586719 
z
" style="fill: #ffffff; opacity: 0.8; stroke: #cccccc; stroke-linejoin: miter"/>
    </g>
    <g id="line2d_19">
     <path d="M 1572.45 64.942187 
L 1597.45 64.942187 
L 1622.45 64.942187 
" style="fill: none; stroke: #000000; stroke-width: 1.5; stroke-linecap: square"/>
    </g>
    <g id="text_20">
     <!-- fact -->
     <g transform="translate(1642.45 73.692187) scale(0.25 -0.25)">
      <use xlink:href="#DejaVuSans-66"/>
      <use xlink:href="#DejaVuSans-61" x="35.205078"/>
      <use xlink:href="#DejaVuSans-63" x="96.484375"/>
      <use xlink:href="#DejaVuSans-74" x="151.464844"/>
     </g>
    </g>
    <g id="line2d_20">
     <path d="M 1572.45 101.6375 
L 1597.45 101.6375 
L 1622.45 101.6375 
" style="fill: none; stroke: #7028e4; stroke-width: 3; stroke-linecap: square"/>
    </g>
    <g id="text_21">
     <!-- PatchTST -->
     <g transform="translate(1642.45 110.3875) scale(0.25 -0.25)">
      <use xlink:href="#DejaVuSans-50"/>
      <use xlink:href="#DejaVuSans-61" x="55.802734"/>
      <use xlink:href="#DejaVuSans-74" x="117.082031"/>
      <use xlink:href="#DejaVuSans-63" x="156.291016"/>
      <use xlink:href="#DejaVuSans-68" x="211.271484"/>
      <use xlink:href="#DejaVuSans-54" x="274.650391"/>
      <use xlink:href="#DejaVuSans-53" x="335.734375"/>
      <use xlink:href="#DejaVuSans-54" x="399.210938"/>
     </g>
    </g>
   </g>
  </g>
 </g>
 <defs>
  <clipPath id="p8b62be99dd">
   <rect x="106.020313" y="32.196094" width="1674" height="388.08"/>
  </clipPath>
 </defs>
</svg>
