<?xml version="1.0" encoding="utf-8" standalone="no"?>
<!DOCTYPE svg PUBLIC "-//W3C//DTD SVG 1.1//EN"
  "http://www.w3.org/Graphics/SVG/1.1/DTD/svg11.dtd">
<svg xmlns:xlink="http://www.w3.org/1999/xlink" width="1787.220313pt" height="486.866719pt" viewBox="0 0 1787.220313 486.866719" xmlns="http://www.w3.org/2000/svg" version="1.1">
 <metadata>
  <rdf:RDF xmlns:dc="http://purl.org/dc/elements/1.1/" xmlns:cc="http://creativecommons.org/ns#" xmlns:rdf="http://www.w3.org/1999/02/22-rdf-syntax-ns#">
   <cc:Work>
    <dc:type rdf:resource="http://purl.org/dc/dcmitype/StillImage"/>
    <dc:date>2024-05-30T14:49:23.985350</dc:date>
    <dc:format>image/svg+xml</dc:format>
    <dc:creator>
     <cc:Agent>
      <dc:title>Matplotlib v3.8.3, https://matplotlib.org/</dc:title>
     </cc:Agent>
    </dc:creator>
   </cc:Work>
  </rdf:RDF>
 </metadata>
 <defs>
  <style type="text/css">*{stroke-linejoin: round; stroke-linecap: butt}</style>
 </defs>
 <g id="figure_1">
  <g id="patch_1">
   <path d="M 0 486.866719 
L 1787.220313 486.866719 
L 1787.220313 0 
L 0 0 
L 0 486.866719 
z
" style="fill: none"/>
  </g>
  <g id="axes_1">
   <g id="patch_2">
    <path d="M 106.020313 420.276094 
L 1780.020313 420.276094 
L 1780.020313 32.196094 
L 106.020313 32.196094 
z
" style="fill: #ffffff"/>
   </g>
   <g id="matplotlib.axis_1">
    <g id="xtick_1">
     <g id="line2d_1">
      <defs>
       <path id="mc661156eea" d="M 0 0 
L 0 3.5 
" style="stroke: #000000; stroke-width: 0.8"/>
      </defs>
      <g>
       <use xlink:href="#mc661156eea" x="182.111222" y="420.276094" style="stroke: #000000; stroke-width: 0.8"/>
      </g>
     </g>
     <g id="text_1">
      <!-- 0 -->
      <g transform="translate(174.158097 446.272187) scale(0.25 -0.25)">
       <defs>
        <path id="DejaVuSans-30" d="M 2034 4250 
Q 1547 4250 1301 3770 
Q 1056 3291 1056 2328 
Q 1056 1369 1301 889 
Q 1547 409 2034 409 
Q 2525 409 2770 889 
Q 3016 1369 3016 2328 
Q 3016 3291 2770 3770 
Q 2525 4250 2034 4250 
z
M 2034 4750 
Q 2819 4750 3233 4129 
Q 3647 3509 3647 2328 
Q 3647 1150 3233 529 
Q 2819 -91 2034 -91 
Q 1250 -91 836 529 
Q 422 1150 422 2328 
Q 422 3509 836 4129 
Q 1250 4750 2034 4750 
z
" transform="scale(0.015625)"/>
       </defs>
       <use xlink:href="#DejaVuSans-30"/>
      </g>
     </g>
    </g>
    <g id="xtick_2">
     <g id="line2d_2">
      <g>
       <use xlink:href="#mc661156eea" x="386.382118" y="420.276094" style="stroke: #000000; stroke-width: 0.8"/>
      </g>
     </g>
     <g id="text_2">
      <!-- 20 -->
      <g transform="translate(370.475868 446.272187) scale(0.25 -0.25)">
       <defs>
        <path id="DejaVuSans-32" d="M 1228 531 
L 3431 531 
L 3431 0 
L 469 0 
L 469 531 
Q 828 903 1448 1529 
Q 2069 2156 2228 2338 
Q 2531 2678 2651 2914 
Q 2772 3150 2772 3378 
Q 2772 3750 2511 3984 
Q 2250 4219 1831 4219 
Q 1534 4219 1204 4116 
Q 875 4013 500 3803 
L 500 4441 
Q 881 4594 1212 4672 
Q 1544 4750 1819 4750 
Q 2544 4750 2975 4387 
Q 3406 4025 3406 3419 
Q 3406 3131 3298 2873 
Q 3191 2616 2906 2266 
Q 2828 2175 2409 1742 
Q 1991 1309 1228 531 
z
" transform="scale(0.015625)"/>
       </defs>
       <use xlink:href="#DejaVuSans-32"/>
       <use xlink:href="#DejaVuSans-30" x="63.623047"/>
      </g>
     </g>
    </g>
    <g id="xtick_3">
     <g id="line2d_3">
      <g>
       <use xlink:href="#mc661156eea" x="590.653015" y="420.276094" style="stroke: #000000; stroke-width: 0.8"/>
      </g>
     </g>
     <g id="text_3">
      <!-- 40 -->
      <g transform="translate(574.746765 446.272187) scale(0.25 -0.25)">
       <defs>
        <path id="DejaVuSans-34" d="M 2419 4116 
L 825 1625 
L 2419 1625 
L 2419 4116 
z
M 2253 4666 
L 3047 4666 
L 3047 1625 
L 3713 1625 
L 3713 1100 
L 3047 1100 
L 3047 0 
L 2419 0 
L 2419 1100 
L 313 1100 
L 313 1709 
L 2253 4666 
z
" transform="scale(0.015625)"/>
       </defs>
       <use xlink:href="#DejaVuSans-34"/>
       <use xlink:href="#DejaVuSans-30" x="63.623047"/>
      </g>
     </g>
    </g>
    <g id="xtick_4">
     <g id="line2d_4">
      <g>
       <use xlink:href="#mc661156eea" x="794.923912" y="420.276094" style="stroke: #000000; stroke-width: 0.8"/>
      </g>
     </g>
     <g id="text_4">
      <!-- 60 -->
      <g transform="translate(779.017662 446.272187) scale(0.25 -0.25)">
       <defs>
        <path id="DejaVuSans-36" d="M 2113 2584 
Q 1688 2584 1439 2293 
Q 1191 2003 1191 1497 
Q 1191 994 1439 701 
Q 1688 409 2113 409 
Q 2538 409 2786 701 
Q 3034 994 3034 1497 
Q 3034 2003 2786 2293 
Q 2538 2584 2113 2584 
z
M 3366 4563 
L 3366 3988 
Q 3128 4100 2886 4159 
Q 2644 4219 2406 4219 
Q 1781 4219 1451 3797 
Q 1122 3375 1075 2522 
Q 1259 2794 1537 2939 
Q 1816 3084 2150 3084 
Q 2853 3084 3261 2657 
Q 3669 2231 3669 1497 
Q 3669 778 3244 343 
Q 2819 -91 2113 -91 
Q 1303 -91 875 529 
Q 447 1150 447 2328 
Q 447 3434 972 4092 
Q 1497 4750 2381 4750 
Q 2619 4750 2861 4703 
Q 3103 4656 3366 4563 
z
" transform="scale(0.015625)"/>
       </defs>
       <use xlink:href="#DejaVuSans-36"/>
       <use xlink:href="#DejaVuSans-30" x="63.623047"/>
      </g>
     </g>
    </g>
    <g id="xtick_5">
     <g id="line2d_5">
      <g>
       <use xlink:href="#mc661156eea" x="999.194809" y="420.276094" style="stroke: #000000; stroke-width: 0.8"/>
      </g>
     </g>
     <g id="text_5">
      <!-- 80 -->
      <g transform="translate(983.288559 446.272187) scale(0.25 -0.25)">
       <defs>
        <path id="DejaVuSans-38" d="M 2034 2216 
Q 1584 2216 1326 1975 
Q 1069 1734 1069 1313 
Q 1069 891 1326 650 
Q 1584 409 2034 409 
Q 2484 409 2743 651 
Q 3003 894 3003 1313 
Q 3003 1734 2745 1975 
Q 2488 2216 2034 2216 
z
M 1403 2484 
Q 997 2584 770 2862 
Q 544 3141 544 3541 
Q 544 4100 942 4425 
Q 1341 4750 2034 4750 
Q 2731 4750 3128 4425 
Q 3525 4100 3525 3541 
Q 3525 3141 3298 2862 
Q 3072 2584 2669 2484 
Q 3125 2378 3379 2068 
Q 3634 1759 3634 1313 
Q 3634 634 3220 271 
Q 2806 -91 2034 -91 
Q 1263 -91 848 271 
Q 434 634 434 1313 
Q 434 1759 690 2068 
Q 947 2378 1403 2484 
z
M 1172 3481 
Q 1172 3119 1398 2916 
Q 1625 2713 2034 2713 
Q 2441 2713 2670 2916 
Q 2900 3119 2900 3481 
Q 2900 3844 2670 4047 
Q 2441 4250 2034 4250 
Q 1625 4250 1398 4047 
Q 1172 3844 1172 3481 
z
" transform="scale(0.015625)"/>
       </defs>
       <use xlink:href="#DejaVuSans-38"/>
       <use xlink:href="#DejaVuSans-30" x="63.623047"/>
      </g>
     </g>
    </g>
    <g id="xtick_6">
     <g id="line2d_6">
      <g>
       <use xlink:href="#mc661156eea" x="1203.465706" y="420.276094" style="stroke: #000000; stroke-width: 0.8"/>
      </g>
     </g>
     <g id="text_6">
      <!-- 100 -->
      <g transform="translate(1179.606331 446.272187) scale(0.25 -0.25)">
       <defs>
        <path id="DejaVuSans-31" d="M 794 531 
L 1825 531 
L 1825 4091 
L 703 3866 
L 703 4441 
L 1819 4666 
L 2450 4666 
L 2450 531 
L 3481 531 
L 3481 0 
L 794 0 
L 794 531 
z
" transform="scale(0.015625)"/>
       </defs>
       <use xlink:href="#DejaVuSans-31"/>
       <use xlink:href="#DejaVuSans-30" x="63.623047"/>
       <use xlink:href="#DejaVuSans-30" x="127.246094"/>
      </g>
     </g>
    </g>
    <g id="xtick_7">
     <g id="line2d_7">
      <g>
       <use xlink:href="#mc661156eea" x="1407.736603" y="420.276094" style="stroke: #000000; stroke-width: 0.8"/>
      </g>
     </g>
     <g id="text_7">
      <!-- 120 -->
      <g transform="translate(1383.877228 446.272187) scale(0.25 -0.25)">
       <use xlink:href="#DejaVuSans-31"/>
       <use xlink:href="#DejaVuSans-32" x="63.623047"/>
       <use xlink:href="#DejaVuSans-30" x="127.246094"/>
      </g>
     </g>
    </g>
    <g id="xtick_8">
     <g id="line2d_8">
      <g>
       <use xlink:href="#mc661156eea" x="1612.0075" y="420.276094" style="stroke: #000000; stroke-width: 0.8"/>
      </g>
     </g>
     <g id="text_8">
      <!-- 140 -->
      <g transform="translate(1588.148125 446.272187) scale(0.25 -0.25)">
       <use xlink:href="#DejaVuSans-31"/>
       <use xlink:href="#DejaVuSans-34" x="63.623047"/>
       <use xlink:href="#DejaVuSans-30" x="127.246094"/>
      </g>
     </g>
    </g>
    <g id="text_9">
     <!-- Time -->
     <g transform="translate(912.436328 474.4675) scale(0.25 -0.25)">
      <defs>
       <path id="DejaVuSans-54" d="M -19 4666 
L 3928 4666 
L 3928 4134 
L 2272 4134 
L 2272 0 
L 1638 0 
L 1638 4134 
L -19 4134 
L -19 4666 
z
" transform="scale(0.015625)"/>
       <path id="DejaVuSans-69" d="M 603 3500 
L 1178 3500 
L 1178 0 
L 603 0 
L 603 3500 
z
M 603 4863 
L 1178 4863 
L 1178 4134 
L 603 4134 
L 603 4863 
z
" transform="scale(0.015625)"/>
       <path id="DejaVuSans-6d" d="M 3328 2828 
Q 3544 3216 3844 3400 
Q 4144 3584 4550 3584 
Q 5097 3584 5394 3201 
Q 5691 2819 5691 2113 
L 5691 0 
L 5113 0 
L 5113 2094 
Q 5113 2597 4934 2840 
Q 4756 3084 4391 3084 
Q 3944 3084 3684 2787 
Q 3425 2491 3425 1978 
L 3425 0 
L 2847 0 
L 2847 2094 
Q 2847 2600 2669 2842 
Q 2491 3084 2119 3084 
Q 1678 3084 1418 2786 
Q 1159 2488 1159 1978 
L 1159 0 
L 581 0 
L 581 3500 
L 1159 3500 
L 1159 2956 
Q 1356 3278 1631 3431 
Q 1906 3584 2284 3584 
Q 2666 3584 2933 3390 
Q 3200 3197 3328 2828 
z
" transform="scale(0.015625)"/>
       <path id="DejaVuSans-65" d="M 3597 1894 
L 3597 1613 
L 953 1613 
Q 991 1019 1311 708 
Q 1631 397 2203 397 
Q 2534 397 2845 478 
Q 3156 559 3463 722 
L 3463 178 
Q 3153 47 2828 -22 
Q 2503 -91 2169 -91 
Q 1331 -91 842 396 
Q 353 884 353 1716 
Q 353 2575 817 3079 
Q 1281 3584 2069 3584 
Q 2775 3584 3186 3129 
Q 3597 2675 3597 1894 
z
M 3022 2063 
Q 3016 2534 2758 2815 
Q 2500 3097 2075 3097 
Q 1594 3097 1305 2825 
Q 1016 2553 972 2059 
L 3022 2063 
z
" transform="scale(0.015625)"/>
      </defs>
      <use xlink:href="#DejaVuSans-54"/>
      <use xlink:href="#DejaVuSans-69" x="57.958984"/>
      <use xlink:href="#DejaVuSans-6d" x="85.742188"/>
      <use xlink:href="#DejaVuSans-65" x="183.154297"/>
     </g>
    </g>
   </g>
   <g id="matplotlib.axis_2">
    <g id="ytick_1">
     <g id="line2d_9">
      <defs>
       <path id="m2d54517c16" d="M 0 0 
L -3.5 0 
" style="stroke: #000000; stroke-width: 0.8"/>
      </defs>
      <g>
       <use xlink:href="#m2d54517c16" x="106.020313" y="389.56251" style="stroke: #000000; stroke-width: 0.8"/>
      </g>
     </g>
     <g id="text_10">
      <!-- 250 -->
      <g transform="translate(51.301563 399.060557) scale(0.25 -0.25)">
       <defs>
        <path id="DejaVuSans-35" d="M 691 4666 
L 3169 4666 
L 3169 4134 
L 1269 4134 
L 1269 2991 
Q 1406 3038 1543 3061 
Q 1681 3084 1819 3084 
Q 2600 3084 3056 2656 
Q 3513 2228 3513 1497 
Q 3513 744 3044 326 
Q 2575 -91 1722 -91 
Q 1428 -91 1123 -41 
Q 819 9 494 109 
L 494 744 
Q 775 591 1075 516 
Q 1375 441 1709 441 
Q 2250 441 2565 725 
Q 2881 1009 2881 1497 
Q 2881 1984 2565 2268 
Q 2250 2553 1709 2553 
Q 1456 2553 1204 2497 
Q 953 2441 691 2322 
L 691 4666 
z
" transform="scale(0.015625)"/>
       </defs>
       <use xlink:href="#DejaVuSans-32"/>
       <use xlink:href="#DejaVuSans-35" x="63.623047"/>
       <use xlink:href="#DejaVuSans-30" x="127.246094"/>
      </g>
     </g>
    </g>
    <g id="ytick_2">
     <g id="line2d_10">
      <g>
       <use xlink:href="#m2d54517c16" x="106.020313" y="342.871139" style="stroke: #000000; stroke-width: 0.8"/>
      </g>
     </g>
     <g id="text_11">
      <!-- 500 -->
      <g transform="translate(51.301563 352.369186) scale(0.25 -0.25)">
       <use xlink:href="#DejaVuSans-35"/>
       <use xlink:href="#DejaVuSans-30" x="63.623047"/>
       <use xlink:href="#DejaVuSans-30" x="127.246094"/>
      </g>
     </g>
    </g>
    <g id="ytick_3">
     <g id="line2d_11">
      <g>
       <use xlink:href="#m2d54517c16" x="106.020313" y="296.179768" style="stroke: #000000; stroke-width: 0.8"/>
      </g>
     </g>
     <g id="text_12">
      <!-- 750 -->
      <g transform="translate(51.301563 305.677815) scale(0.25 -0.25)">
       <defs>
        <path id="DejaVuSans-37" d="M 525 4666 
L 3525 4666 
L 3525 4397 
L 1831 0 
L 1172 0 
L 2766 4134 
L 525 4134 
L 525 4666 
z
" transform="scale(0.015625)"/>
       </defs>
       <use xlink:href="#DejaVuSans-37"/>
       <use xlink:href="#DejaVuSans-35" x="63.623047"/>
       <use xlink:href="#DejaVuSans-30" x="127.246094"/>
      </g>
     </g>
    </g>
    <g id="ytick_4">
     <g id="line2d_12">
      <g>
       <use xlink:href="#m2d54517c16" x="106.020313" y="249.488397" style="stroke: #000000; stroke-width: 0.8"/>
      </g>
     </g>
     <g id="text_13">
      <!-- 1000 -->
      <g transform="translate(35.395313 258.986443) scale(0.25 -0.25)">
       <use xlink:href="#DejaVuSans-31"/>
       <use xlink:href="#DejaVuSans-30" x="63.623047"/>
       <use xlink:href="#DejaVuSans-30" x="127.246094"/>
       <use xlink:href="#DejaVuSans-30" x="190.869141"/>
      </g>
     </g>
    </g>
    <g id="ytick_5">
     <g id="line2d_13">
      <g>
       <use xlink:href="#m2d54517c16" x="106.020313" y="202.797025" style="stroke: #000000; stroke-width: 0.8"/>
      </g>
     </g>
     <g id="text_14">
      <!-- 1250 -->
      <g transform="translate(35.395313 212.295072) scale(0.25 -0.25)">
       <use xlink:href="#DejaVuSans-31"/>
       <use xlink:href="#DejaVuSans-32" x="63.623047"/>
       <use xlink:href="#DejaVuSans-35" x="127.246094"/>
       <use xlink:href="#DejaVuSans-30" x="190.869141"/>
      </g>
     </g>
    </g>
    <g id="ytick_6">
     <g id="line2d_14">
      <g>
       <use xlink:href="#m2d54517c16" x="106.020313" y="156.105654" style="stroke: #000000; stroke-width: 0.8"/>
      </g>
     </g>
     <g id="text_15">
      <!-- 1500 -->
      <g transform="translate(35.395313 165.603701) scale(0.25 -0.25)">
       <use xlink:href="#DejaVuSans-31"/>
       <use xlink:href="#DejaVuSans-35" x="63.623047"/>
       <use xlink:href="#DejaVuSans-30" x="127.246094"/>
       <use xlink:href="#DejaVuSans-30" x="190.869141"/>
      </g>
     </g>
    </g>
    <g id="ytick_7">
     <g id="line2d_15">
      <g>
       <use xlink:href="#m2d54517c16" x="106.020313" y="109.414283" style="stroke: #000000; stroke-width: 0.8"/>
      </g>
     </g>
     <g id="text_16">
      <!-- 1750 -->
      <g transform="translate(35.395313 118.91233) scale(0.25 -0.25)">
       <use xlink:href="#DejaVuSans-31"/>
       <use xlink:href="#DejaVuSans-37" x="63.623047"/>
       <use xlink:href="#DejaVuSans-35" x="127.246094"/>
       <use xlink:href="#DejaVuSans-30" x="190.869141"/>
      </g>
     </g>
    </g>
    <g id="ytick_8">
     <g id="line2d_16">
      <g>
       <use xlink:href="#m2d54517c16" x="106.020313" y="62.722912" style="stroke: #000000; stroke-width: 0.8"/>
      </g>
     </g>
     <g id="text_17">
      <!-- 2000 -->
      <g transform="translate(35.395313 72.220959) scale(0.25 -0.25)">
       <use xlink:href="#DejaVuSans-32"/>
       <use xlink:href="#DejaVuSans-30" x="63.623047"/>
       <use xlink:href="#DejaVuSans-30" x="127.246094"/>
       <use xlink:href="#DejaVuSans-30" x="190.869141"/>
      </g>
     </g>
    </g>
    <g id="text_18">
     <!-- Flow -->
     <g transform="translate(26.196094 254.769297) rotate(-90) scale(0.25 -0.25)">
      <defs>
       <path id="DejaVuSans-46" d="M 628 4666 
L 3309 4666 
L 3309 4134 
L 1259 4134 
L 1259 2759 
L 3109 2759 
L 3109 2228 
L 1259 2228 
L 1259 0 
L 628 0 
L 628 4666 
z
" transform="scale(0.015625)"/>
       <path id="DejaVuSans-6c" d="M 603 4863 
L 1178 4863 
L 1178 0 
L 603 0 
L 603 4863 
z
" transform="scale(0.015625)"/>
       <path id="DejaVuSans-6f" d="M 1959 3097 
Q 1497 3097 1228 2736 
Q 959 2375 959 1747 
Q 959 1119 1226 758 
Q 1494 397 1959 397 
Q 2419 397 2687 759 
Q 2956 1122 2956 1747 
Q 2956 2369 2687 2733 
Q 2419 3097 1959 3097 
z
M 1959 3584 
Q 2709 3584 3137 3096 
Q 3566 2609 3566 1747 
Q 3566 888 3137 398 
Q 2709 -91 1959 -91 
Q 1206 -91 779 398 
Q 353 888 353 1747 
Q 353 2609 779 3096 
Q 1206 3584 1959 3584 
z
" transform="scale(0.015625)"/>
       <path id="DejaVuSans-77" d="M 269 3500 
L 844 3500 
L 1563 769 
L 2278 3500 
L 2956 3500 
L 3675 769 
L 4391 3500 
L 4966 3500 
L 4050 0 
L 3372 0 
L 2619 2869 
L 1863 0 
L 1184 0 
L 269 3500 
z
" transform="scale(0.015625)"/>
      </defs>
      <use xlink:href="#DejaVuSans-46"/>
      <use xlink:href="#DejaVuSans-6c" x="57.519531"/>
      <use xlink:href="#DejaVuSans-6f" x="85.302734"/>
      <use xlink:href="#DejaVuSans-77" x="146.484375"/>
     </g>
    </g>
   </g>
   <g id="line2d_17">
    <path d="M 182.111222 208.773521 
L 192.324766 156.665951 
L 202.538311 130.892314 
L 212.751856 171.046893 
L 222.965401 140.417354 
L 233.178946 123.795226 
L 243.392491 120.806978 
L 253.606036 120.246681 
L 263.81958 132.386438 
L 274.033125 114.270186 
L 284.24667 105.678974 
L 294.460215 128.090832 
L 304.67376 120.059916 
L 314.887305 173.848375 
L 325.100849 207.279397 
L 335.314394 264.803166 
L 345.527939 281.798825 
L 355.741484 319.338688 
L 365.955029 346.979979 
L 376.168574 381.718359 
L 386.382118 402.636094 
L 396.595663 398.340488 
L 406.809208 372.753616 
L 417.022753 297.113595 
L 427.236298 158.907137 
L 437.449843 129.771721 
L 447.663388 172.727782 
L 457.876932 146.020318 
L 468.090477 101.383367 
L 478.304022 97.087761 
L 488.517567 97.461292 
L 498.731112 92.978921 
L 508.944657 86.442129 
L 519.158201 104.745146 
L 529.371746 81.212695 
L 539.585291 66.271456 
L 549.798836 58.800837 
L 560.012381 127.157004 
L 570.225926 194.019048 
L 580.439471 191.777862 
L 590.653015 221.100043 
L 600.86656 267.044352 
L 611.080105 315.603378 
L 621.29365 361.734453 
L 631.507195 391.430165 
L 641.72074 392.363992 
L 651.934284 372.940382 
L 662.147829 291.884162 
L 672.361374 165.443929 
L 682.574919 129.771721 
L 692.788464 135.561451 
L 703.002009 128.464363 
L 713.215554 131.45261 
L 723.429098 119.312854 
L 733.642643 98.021589 
L 743.856188 89.617142 
L 754.069733 94.473045 
L 764.283278 69.259704 
L 774.496823 72.434717 
L 784.710367 56.18612 
L 794.923912 90.9245 
L 805.137457 94.65981 
L 815.351002 194.579344 
L 825.564547 187.855787 
L 835.778092 194.579344 
L 845.991636 242.578074 
L 856.205181 301.409201 
L 866.418726 353.14324 
L 876.632271 380.597767 
L 886.845816 385.640435 
L 897.059361 357.252081 
L 907.272906 285.907666 
L 917.48645 162.08215 
L 927.699995 126.036411 
L 937.91354 124.729053 
L 948.127085 118.005496 
L 958.34063 97.648058 
L 968.554175 95.967168 
L 978.767719 98.581885 
L 988.981264 91.111266 
L 999.194809 96.527465 
L 1009.408354 75.983262 
L 1019.621899 75.983262 
L 1029.835444 81.586226 
L 1040.048989 98.39512 
L 1050.262533 129.39819 
L 1060.476078 192.711689 
L 1070.689623 191.777862 
L 1080.903168 200.369074 
L 1091.116713 214.936782 
L 1101.330258 261.628153 
L 1111.543802 320.646046 
L 1121.757347 367.150652 
L 1131.970892 378.169815 
L 1142.184437 358.559439 
L 1152.397982 293.751816 
L 1162.611527 178.143982 
L 1172.825071 135.561451 
L 1183.038616 138.176168 
L 1193.252161 106.426036 
L 1203.465706 91.671562 
L 1213.679251 72.808248 
L 1223.892796 65.524394 
L 1234.106341 81.212695 
L 1244.319885 93.912748 
L 1254.53343 55.439058 
L 1264.746975 71.50089 
L 1274.96052 71.314124 
L 1285.174065 49.836094 
L 1295.38761 67.018518 
L 1305.601154 162.268915 
L 1315.814699 169.552769 
L 1326.028244 186.174897 
L 1336.241789 195.886703 
L 1346.455334 207.279397 
L 1356.668879 224.461822 
L 1366.882424 297.113595 
L 1377.095968 332.412272 
L 1387.309513 334.653457 
L 1397.523058 343.618201 
L 1407.736603 320.272515 
L 1417.950148 281.61206 
L 1428.163693 233.053034 
L 1438.377237 183.18665 
L 1448.590782 152.370345 
L 1458.804327 126.409942 
L 1469.017872 111.468704 
L 1479.231417 131.265845 
L 1489.444962 104.745146 
L 1499.658507 98.208354 
L 1509.872051 100.076009 
L 1520.085596 138.92323 
L 1530.299141 117.071668 
L 1540.512686 150.129159 
L 1550.726231 161.895384 
L 1560.939776 172.914548 
L 1571.15332 169.179238 
L 1581.366865 193.08522 
L 1591.58041 187.29549 
L 1601.793955 215.310313 
L 1612.0075 274.328206 
L 1622.221045 319.712219 
L 1632.434589 342.497608 
L 1642.648134 359.306501 
L 1652.861679 365.656528 
L 1663.075224 335.026988 
L 1673.288769 303.276856 
L 1683.502314 237.161875 
L 1693.715859 189.910207 
L 1703.929403 145.086491 
L 1703.929403 145.086491 
" clip-path="url(#p7d19cf4734)" style="fill: none; stroke: #000000; stroke-width: 1.5; stroke-linecap: square"/>
   </g>
   <g id="line2d_18">
    <path d="M 182.111222 291.253007 
L 192.324766 209.485747 
L 202.538311 172.374269 
L 212.751856 146.909506 
L 222.965401 183.735684 
L 233.178946 143.04632 
L 243.392491 138.375518 
L 253.606036 131.022106 
L 263.81958 125.546084 
L 274.033125 137.501719 
L 284.24667 120.234142 
L 294.460215 118.489417 
L 304.67376 154.650881 
L 314.887305 155.607985 
L 325.100849 224.515353 
L 335.314394 241.102622 
L 345.527939 296.067576 
L 355.741484 299.937534 
L 365.955029 343.685388 
L 376.168574 365.781686 
L 386.382118 389.735568 
L 396.595663 391.276326 
L 406.809208 363.989238 
L 417.022753 318.354863 
L 427.236298 235.036163 
L 437.449843 112.216905 
L 447.663388 132.984671 
L 457.876932 176.384072 
L 468.090477 130.209225 
L 478.304022 98.213894 
L 488.517567 107.459971 
L 498.731112 109.447068 
L 508.944657 102.950857 
L 519.158201 97.786034 
L 529.371746 118.155715 
L 539.585291 85.219763 
L 549.798836 96.233592 
L 560.012381 106.842701 
L 570.225926 193.191347 
L 580.439471 243.354796 
L 590.653015 224.512548 
L 600.86656 262.54788 
L 611.080105 311.302232 
L 621.29365 351.380436 
L 631.507195 376.481174 
L 641.72074 386.570557 
L 651.934284 362.385499 
L 662.147829 306.6742 
L 682.574919 129.040231 
L 692.788464 128.903941 
L 703.002009 126.697454 
L 713.215554 112.597892 
L 723.429098 124.927605 
L 733.642643 114.833423 
L 743.856188 90.874116 
L 754.069733 91.747162 
L 764.283278 98.163669 
L 774.496823 64.724691 
L 784.710367 71.674181 
L 794.923912 70.276564 
L 805.137457 133.67232 
L 815.351002 133.849009 
L 825.564547 239.972111 
L 835.778092 203.458479 
L 845.991636 228.342426 
L 856.205181 288.218752 
L 866.418726 336.985233 
L 876.632271 370.717127 
L 886.845816 379.841021 
L 897.059361 358.450747 
L 907.272906 292.726396 
L 917.48645 219.914223 
L 927.699995 118.965108 
L 937.91354 117.043352 
L 948.127085 122.019905 
L 958.34063 115.328607 
L 968.554175 93.907938 
L 978.767719 100.693781 
L 988.981264 102.107836 
L 999.194809 84.848603 
L 1009.408354 93.960967 
L 1019.621899 67.641465 
L 1029.835444 80.226659 
L 1040.048989 88.241776 
L 1050.262533 130.728119 
L 1060.476078 165.093834 
L 1070.689623 218.843878 
L 1080.903168 202.517402 
L 1091.116713 227.754293 
L 1101.330258 256.409845 
L 1111.543802 305.100099 
L 1121.757347 346.977494 
L 1131.970892 370.419623 
L 1142.184437 352.555825 
L 1152.397982 297.421785 
L 1162.611527 225.227031 
L 1172.825071 128.127492 
L 1183.038616 119.228978 
L 1193.252161 125.319808 
L 1203.465706 90.840647 
L 1213.679251 91.106524 
L 1223.892796 78.992507 
L 1234.106341 77.824584 
L 1244.319885 89.303845 
L 1254.53343 95.453358 
L 1264.746975 52.823247 
L 1274.96052 85.04027 
L 1285.174065 87.715244 
L 1295.38761 86.637717 
L 1305.601154 118.810283 
L 1315.814699 208.481358 
L 1326.028244 181.631312 
L 1336.241789 210.87176 
L 1346.455334 234.364063 
L 1356.668879 251.720258 
L 1366.882424 266.999359 
L 1377.095968 331.792163 
L 1387.309513 326.512128 
L 1397.523058 289.479943 
L 1407.736603 285.627267 
L 1417.950148 253.987274 
L 1428.163693 216.96259 
L 1438.377237 178.60018 
L 1448.590782 134.230656 
L 1458.804327 111.069388 
L 1469.017872 105.677788 
L 1479.231417 106.63829 
L 1489.444962 119.049964 
L 1499.658507 88.041696 
L 1509.872051 94.090577 
L 1520.085596 88.925708 
L 1530.299141 129.743428 
L 1540.512686 119.796046 
L 1550.726231 168.658383 
L 1560.939776 172.175306 
L 1571.15332 185.814726 
L 1581.366865 184.06535 
L 1591.58041 211.824077 
L 1601.793955 212.253624 
L 1612.0075 254.760281 
L 1622.221045 306.094936 
L 1632.434589 332.355424 
L 1642.648134 339.752312 
L 1652.861679 339.83392 
L 1663.075224 324.248372 
L 1673.288769 277.405049 
L 1683.502314 250.641272 
L 1693.715859 183.349819 
L 1703.929403 150.771165 
L 1703.929403 150.771165 
" clip-path="url(#p7d19cf4734)" style="fill: none; stroke: #7028e4; stroke-width: 3; stroke-linecap: square"/>
   </g>
   <g id="patch_3">
    <path d="M 106.020313 420.276094 
L 106.020313 32.196094 
" style="fill: none; stroke: #000000; stroke-width: 0.8; stroke-linejoin: miter; stroke-linecap: square"/>
   </g>
   <g id="patch_4">
    <path d="M 1780.020313 420.276094 
L 1780.020313 32.196094 
" style="fill: none; stroke: #000000; stroke-width: 0.8; stroke-linejoin: miter; stroke-linecap: square"/>
   </g>
   <g id="patch_5">
    <path d="M 106.020313 420.276094 
L 1780.020312 420.276094 
" style="fill: none; stroke: #000000; stroke-width: 0.8; stroke-linejoin: miter; stroke-linecap: square"/>
   </g>
   <g id="patch_6">
    <path d="M 106.020313 32.196094 
L 1780.020312 32.196094 
" style="fill: none; stroke: #000000; stroke-width: 0.8; stroke-linejoin: miter; stroke-linecap: square"/>
   </g>
   <g id="text_19">
    <!-- Result of NLinear -->
    <g transform="translate(836.203906 26.196094) scale(0.25 -0.25)">
     <defs>
      <path id="DejaVuSans-52" d="M 2841 2188 
Q 3044 2119 3236 1894 
Q 3428 1669 3622 1275 
L 4263 0 
L 3584 0 
L 2988 1197 
Q 2756 1666 2539 1819 
Q 2322 1972 1947 1972 
L 1259 1972 
L 1259 0 
L 628 0 
L 628 4666 
L 2053 4666 
Q 2853 4666 3247 4331 
Q 3641 3997 3641 3322 
Q 3641 2881 3436 2590 
Q 3231 2300 2841 2188 
z
M 1259 4147 
L 1259 2491 
L 2053 2491 
Q 2509 2491 2742 2702 
Q 2975 2913 2975 3322 
Q 2975 3731 2742 3939 
Q 2509 4147 2053 4147 
L 1259 4147 
z
" transform="scale(0.015625)"/>
      <path id="DejaVuSans-73" d="M 2834 3397 
L 2834 2853 
Q 2591 2978 2328 3040 
Q 2066 3103 1784 3103 
Q 1356 3103 1142 2972 
Q 928 2841 928 2578 
Q 928 2378 1081 2264 
Q 1234 2150 1697 2047 
L 1894 2003 
Q 2506 1872 2764 1633 
Q 3022 1394 3022 966 
Q 3022 478 2636 193 
Q 2250 -91 1575 -91 
Q 1294 -91 989 -36 
Q 684 19 347 128 
L 347 722 
Q 666 556 975 473 
Q 1284 391 1588 391 
Q 1994 391 2212 530 
Q 2431 669 2431 922 
Q 2431 1156 2273 1281 
Q 2116 1406 1581 1522 
L 1381 1569 
Q 847 1681 609 1914 
Q 372 2147 372 2553 
Q 372 3047 722 3315 
Q 1072 3584 1716 3584 
Q 2034 3584 2315 3537 
Q 2597 3491 2834 3397 
z
" transform="scale(0.015625)"/>
      <path id="DejaVuSans-75" d="M 544 1381 
L 544 3500 
L 1119 3500 
L 1119 1403 
Q 1119 906 1312 657 
Q 1506 409 1894 409 
Q 2359 409 2629 706 
Q 2900 1003 2900 1516 
L 2900 3500 
L 3475 3500 
L 3475 0 
L 2900 0 
L 2900 538 
Q 2691 219 2414 64 
Q 2138 -91 1772 -91 
Q 1169 -91 856 284 
Q 544 659 544 1381 
z
M 1991 3584 
L 1991 3584 
z
" transform="scale(0.015625)"/>
      <path id="DejaVuSans-74" d="M 1172 4494 
L 1172 3500 
L 2356 3500 
L 2356 3053 
L 1172 3053 
L 1172 1153 
Q 1172 725 1289 603 
Q 1406 481 1766 481 
L 2356 481 
L 2356 0 
L 1766 0 
Q 1100 0 847 248 
Q 594 497 594 1153 
L 594 3053 
L 172 3053 
L 172 3500 
L 594 3500 
L 594 4494 
L 1172 4494 
z
" transform="scale(0.015625)"/>
      <path id="DejaVuSans-20" transform="scale(0.015625)"/>
      <path id="DejaVuSans-66" d="M 2375 4863 
L 2375 4384 
L 1825 4384 
Q 1516 4384 1395 4259 
Q 1275 4134 1275 3809 
L 1275 3500 
L 2222 3500 
L 2222 3053 
L 1275 3053 
L 1275 0 
L 697 0 
L 697 3053 
L 147 3053 
L 147 3500 
L 697 3500 
L 697 3744 
Q 697 4328 969 4595 
Q 1241 4863 1831 4863 
L 2375 4863 
z
" transform="scale(0.015625)"/>
      <path id="DejaVuSans-4e" d="M 628 4666 
L 1478 4666 
L 3547 763 
L 3547 4666 
L 4159 4666 
L 4159 0 
L 3309 0 
L 1241 3903 
L 1241 0 
L 628 0 
L 628 4666 
z
" transform="scale(0.015625)"/>
      <path id="DejaVuSans-4c" d="M 628 4666 
L 1259 4666 
L 1259 531 
L 3531 531 
L 3531 0 
L 628 0 
L 628 4666 
z
" transform="scale(0.015625)"/>
      <path id="DejaVuSans-6e" d="M 3513 2113 
L 3513 0 
L 2938 0 
L 2938 2094 
Q 2938 2591 2744 2837 
Q 2550 3084 2163 3084 
Q 1697 3084 1428 2787 
Q 1159 2491 1159 1978 
L 1159 0 
L 581 0 
L 581 3500 
L 1159 3500 
L 1159 2956 
Q 1366 3272 1645 3428 
Q 1925 3584 2291 3584 
Q 2894 3584 3203 3211 
Q 3513 2838 3513 2113 
z
" transform="scale(0.015625)"/>
      <path id="DejaVuSans-61" d="M 2194 1759 
Q 1497 1759 1228 1600 
Q 959 1441 959 1056 
Q 959 750 1161 570 
Q 1363 391 1709 391 
Q 2188 391 2477 730 
Q 2766 1069 2766 1631 
L 2766 1759 
L 2194 1759 
z
M 3341 1997 
L 3341 0 
L 2766 0 
L 2766 531 
Q 2569 213 2275 61 
Q 1981 -91 1556 -91 
Q 1019 -91 701 211 
Q 384 513 384 1019 
Q 384 1609 779 1909 
Q 1175 2209 1959 2209 
L 2766 2209 
L 2766 2266 
Q 2766 2663 2505 2880 
Q 2244 3097 1772 3097 
Q 1472 3097 1187 3025 
Q 903 2953 641 2809 
L 641 3341 
Q 956 3463 1253 3523 
Q 1550 3584 1831 3584 
Q 2591 3584 2966 3190 
Q 3341 2797 3341 1997 
z
" transform="scale(0.015625)"/>
      <path id="DejaVuSans-72" d="M 2631 2963 
Q 2534 3019 2420 3045 
Q 2306 3072 2169 3072 
Q 1681 3072 1420 2755 
Q 1159 2438 1159 1844 
L 1159 0 
L 581 0 
L 581 3500 
L 1159 3500 
L 1159 2956 
Q 1341 3275 1631 3429 
Q 1922 3584 2338 3584 
Q 2397 3584 2469 3576 
Q 2541 3569 2628 3553 
L 2631 2963 
z
" transform="scale(0.015625)"/>
     </defs>
     <use xlink:href="#DejaVuSans-52"/>
     <use xlink:href="#DejaVuSans-65" x="64.982422"/>
     <use xlink:href="#DejaVuSans-73" x="126.505859"/>
     <use xlink:href="#DejaVuSans-75" x="178.605469"/>
     <use xlink:href="#DejaVuSans-6c" x="241.984375"/>
     <use xlink:href="#DejaVuSans-74" x="269.767578"/>
     <use xlink:href="#DejaVuSans-20" x="308.976562"/>
     <use xlink:href="#DejaVuSans-6f" x="340.763672"/>
     <use xlink:href="#DejaVuSans-66" x="401.945312"/>
     <use xlink:href="#DejaVuSans-20" x="437.150391"/>
     <use xlink:href="#DejaVuSans-4e" x="468.9375"/>
     <use xlink:href="#DejaVuSans-4c" x="543.742188"/>
     <use xlink:href="#DejaVuSans-69" x="599.455078"/>
     <use xlink:href="#DejaVuSans-6e" x="627.238281"/>
     <use xlink:href="#DejaVuSans-65" x="690.617188"/>
     <use xlink:href="#DejaVuSans-61" x="752.140625"/>
     <use xlink:href="#DejaVuSans-72" x="813.419922"/>
    </g>
   </g>
   <g id="legend_1">
    <g id="patch_7">
     <path d="M 1586.117969 125.586719 
L 1762.520313 125.586719 
Q 1767.520313 125.586719 1767.520313 120.586719 
L 1767.520313 49.696094 
Q 1767.520313 44.696094 1762.520313 44.696094 
L 1586.117969 44.696094 
Q 1581.117969 44.696094 1581.117969 49.696094 
L 1581.117969 120.586719 
Q 1581.117969 125.586719 1586.117969 125.586719 
z
" style="fill: #ffffff; opacity: 0.8; stroke: #cccccc; stroke-linejoin: miter"/>
    </g>
    <g id="line2d_19">
     <path d="M 1591.117969 64.942187 
L 1616.117969 64.942187 
L 1641.117969 64.942187 
" style="fill: none; stroke: #000000; stroke-width: 1.5; stroke-linecap: square"/>
    </g>
    <g id="text_20">
     <!-- fact -->
     <g transform="translate(1661.117969 73.692187) scale(0.25 -0.25)">
      <defs>
       <path id="DejaVuSans-63" d="M 3122 3366 
L 3122 2828 
Q 2878 2963 2633 3030 
Q 2388 3097 2138 3097 
Q 1578 3097 1268 2742 
Q 959 2388 959 1747 
Q 959 1106 1268 751 
Q 1578 397 2138 397 
Q 2388 397 2633 464 
Q 2878 531 3122 666 
L 3122 134 
Q 2881 22 2623 -34 
Q 2366 -91 2075 -91 
Q 1284 -91 818 406 
Q 353 903 353 1747 
Q 353 2603 823 3093 
Q 1294 3584 2113 3584 
Q 2378 3584 2631 3529 
Q 2884 3475 3122 3366 
z
" transform="scale(0.015625)"/>
      </defs>
      <use xlink:href="#DejaVuSans-66"/>
      <use xlink:href="#DejaVuSans-61" x="35.205078"/>
      <use xlink:href="#DejaVuSans-63" x="96.484375"/>
      <use xlink:href="#DejaVuSans-74" x="151.464844"/>
     </g>
    </g>
    <g id="line2d_20">
     <path d="M 1591.117969 101.6375 
L 1616.117969 101.6375 
L 1641.117969 101.6375 
" style="fill: none; stroke: #7028e4; stroke-width: 3; stroke-linecap: square"/>
    </g>
    <g id="text_21">
     <!-- NLinear -->
     <g transform="translate(1661.117969 110.3875) scale(0.25 -0.25)">
      <use xlink:href="#DejaVuSans-4e"/>
      <use xlink:href="#DejaVuSans-4c" x="74.804688"/>
      <use xlink:href="#DejaVuSans-69" x="130.517578"/>
      <use xlink:href="#DejaVuSans-6e" x="158.300781"/>
      <use xlink:href="#DejaVuSans-65" x="221.679688"/>
      <use xlink:href="#DejaVuSans-61" x="283.203125"/>
      <use xlink:href="#DejaVuSans-72" x="344.482422"/>
     </g>
    </g>
   </g>
  </g>
 </g>
 <defs>
  <clipPath id="p7d19cf4734">
   <rect x="106.020313" y="32.196094" width="1674" height="388.08"/>
  </clipPath>
 </defs>
</svg>
