<?xml version="1.0" encoding="utf-8" standalone="no"?>
<!DOCTYPE svg PUBLIC "-//W3C//DTD SVG 1.1//EN"
  "http://www.w3.org/Graphics/SVG/1.1/DTD/svg11.dtd">
<svg xmlns:xlink="http://www.w3.org/1999/xlink" width="1787.220313pt" height="486.866719pt" viewBox="0 0 1787.220313 486.866719" xmlns="http://www.w3.org/2000/svg" version="1.1">
 <metadata>
  <rdf:RDF xmlns:dc="http://purl.org/dc/elements/1.1/" xmlns:cc="http://creativecommons.org/ns#" xmlns:rdf="http://www.w3.org/1999/02/22-rdf-syntax-ns#">
   <cc:Work>
    <dc:type rdf:resource="http://purl.org/dc/dcmitype/StillImage"/>
    <dc:date>2024-05-30T14:49:34.237570</dc:date>
    <dc:format>image/svg+xml</dc:format>
    <dc:creator>
     <cc:Agent>
      <dc:title>Matplotlib v3.8.3, https://matplotlib.org/</dc:title>
     </cc:Agent>
    </dc:creator>
   </cc:Work>
  </rdf:RDF>
 </metadata>
 <defs>
  <style type="text/css">*{stroke-linejoin: round; stroke-linecap: butt}</style>
 </defs>
 <g id="figure_1">
  <g id="patch_1">
   <path d="M 0 486.866719 
L 1787.220313 486.866719 
L 1787.220313 0 
L 0 0 
L 0 486.866719 
z
" style="fill: none"/>
  </g>
  <g id="axes_1">
   <g id="patch_2">
    <path d="M 106.020313 420.276094 
L 1780.020313 420.276094 
L 1780.020313 32.196094 
L 106.020313 32.196094 
z
" style="fill: #ffffff"/>
   </g>
   <g id="matplotlib.axis_1">
    <g id="xtick_1">
     <g id="line2d_1">
      <defs>
       <path id="m3de540a312" d="M 0 0 
L 0 3.5 
" style="stroke: #000000; stroke-width: 0.8"/>
      </defs>
      <g>
       <use xlink:href="#m3de540a312" x="182.111222" y="420.276094" style="stroke: #000000; stroke-width: 0.8"/>
      </g>
     </g>
     <g id="text_1">
      <!-- 0 -->
      <g transform="translate(174.158097 446.272187) scale(0.25 -0.25)">
       <defs>
        <path id="DejaVuSans-30" d="M 2034 4250 
Q 1547 4250 1301 3770 
Q 1056 3291 1056 2328 
Q 1056 1369 1301 889 
Q 1547 409 2034 409 
Q 2525 409 2770 889 
Q 3016 1369 3016 2328 
Q 3016 3291 2770 3770 
Q 2525 4250 2034 4250 
z
M 2034 4750 
Q 2819 4750 3233 4129 
Q 3647 3509 3647 2328 
Q 3647 1150 3233 529 
Q 2819 -91 2034 -91 
Q 1250 -91 836 529 
Q 422 1150 422 2328 
Q 422 3509 836 4129 
Q 1250 4750 2034 4750 
z
" transform="scale(0.015625)"/>
       </defs>
       <use xlink:href="#DejaVuSans-30"/>
      </g>
     </g>
    </g>
    <g id="xtick_2">
     <g id="line2d_2">
      <g>
       <use xlink:href="#m3de540a312" x="386.382118" y="420.276094" style="stroke: #000000; stroke-width: 0.8"/>
      </g>
     </g>
     <g id="text_2">
      <!-- 20 -->
      <g transform="translate(370.475868 446.272187) scale(0.25 -0.25)">
       <defs>
        <path id="DejaVuSans-32" d="M 1228 531 
L 3431 531 
L 3431 0 
L 469 0 
L 469 531 
Q 828 903 1448 1529 
Q 2069 2156 2228 2338 
Q 2531 2678 2651 2914 
Q 2772 3150 2772 3378 
Q 2772 3750 2511 3984 
Q 2250 4219 1831 4219 
Q 1534 4219 1204 4116 
Q 875 4013 500 3803 
L 500 4441 
Q 881 4594 1212 4672 
Q 1544 4750 1819 4750 
Q 2544 4750 2975 4387 
Q 3406 4025 3406 3419 
Q 3406 3131 3298 2873 
Q 3191 2616 2906 2266 
Q 2828 2175 2409 1742 
Q 1991 1309 1228 531 
z
" transform="scale(0.015625)"/>
       </defs>
       <use xlink:href="#DejaVuSans-32"/>
       <use xlink:href="#DejaVuSans-30" x="63.623047"/>
      </g>
     </g>
    </g>
    <g id="xtick_3">
     <g id="line2d_3">
      <g>
       <use xlink:href="#m3de540a312" x="590.653015" y="420.276094" style="stroke: #000000; stroke-width: 0.8"/>
      </g>
     </g>
     <g id="text_3">
      <!-- 40 -->
      <g transform="translate(574.746765 446.272187) scale(0.25 -0.25)">
       <defs>
        <path id="DejaVuSans-34" d="M 2419 4116 
L 825 1625 
L 2419 1625 
L 2419 4116 
z
M 2253 4666 
L 3047 4666 
L 3047 1625 
L 3713 1625 
L 3713 1100 
L 3047 1100 
L 3047 0 
L 2419 0 
L 2419 1100 
L 313 1100 
L 313 1709 
L 2253 4666 
z
" transform="scale(0.015625)"/>
       </defs>
       <use xlink:href="#DejaVuSans-34"/>
       <use xlink:href="#DejaVuSans-30" x="63.623047"/>
      </g>
     </g>
    </g>
    <g id="xtick_4">
     <g id="line2d_4">
      <g>
       <use xlink:href="#m3de540a312" x="794.923912" y="420.276094" style="stroke: #000000; stroke-width: 0.8"/>
      </g>
     </g>
     <g id="text_4">
      <!-- 60 -->
      <g transform="translate(779.017662 446.272187) scale(0.25 -0.25)">
       <defs>
        <path id="DejaVuSans-36" d="M 2113 2584 
Q 1688 2584 1439 2293 
Q 1191 2003 1191 1497 
Q 1191 994 1439 701 
Q 1688 409 2113 409 
Q 2538 409 2786 701 
Q 3034 994 3034 1497 
Q 3034 2003 2786 2293 
Q 2538 2584 2113 2584 
z
M 3366 4563 
L 3366 3988 
Q 3128 4100 2886 4159 
Q 2644 4219 2406 4219 
Q 1781 4219 1451 3797 
Q 1122 3375 1075 2522 
Q 1259 2794 1537 2939 
Q 1816 3084 2150 3084 
Q 2853 3084 3261 2657 
Q 3669 2231 3669 1497 
Q 3669 778 3244 343 
Q 2819 -91 2113 -91 
Q 1303 -91 875 529 
Q 447 1150 447 2328 
Q 447 3434 972 4092 
Q 1497 4750 2381 4750 
Q 2619 4750 2861 4703 
Q 3103 4656 3366 4563 
z
" transform="scale(0.015625)"/>
       </defs>
       <use xlink:href="#DejaVuSans-36"/>
       <use xlink:href="#DejaVuSans-30" x="63.623047"/>
      </g>
     </g>
    </g>
    <g id="xtick_5">
     <g id="line2d_5">
      <g>
       <use xlink:href="#m3de540a312" x="999.194809" y="420.276094" style="stroke: #000000; stroke-width: 0.8"/>
      </g>
     </g>
     <g id="text_5">
      <!-- 80 -->
      <g transform="translate(983.288559 446.272187) scale(0.25 -0.25)">
       <defs>
        <path id="DejaVuSans-38" d="M 2034 2216 
Q 1584 2216 1326 1975 
Q 1069 1734 1069 1313 
Q 1069 891 1326 650 
Q 1584 409 2034 409 
Q 2484 409 2743 651 
Q 3003 894 3003 1313 
Q 3003 1734 2745 1975 
Q 2488 2216 2034 2216 
z
M 1403 2484 
Q 997 2584 770 2862 
Q 544 3141 544 3541 
Q 544 4100 942 4425 
Q 1341 4750 2034 4750 
Q 2731 4750 3128 4425 
Q 3525 4100 3525 3541 
Q 3525 3141 3298 2862 
Q 3072 2584 2669 2484 
Q 3125 2378 3379 2068 
Q 3634 1759 3634 1313 
Q 3634 634 3220 271 
Q 2806 -91 2034 -91 
Q 1263 -91 848 271 
Q 434 634 434 1313 
Q 434 1759 690 2068 
Q 947 2378 1403 2484 
z
M 1172 3481 
Q 1172 3119 1398 2916 
Q 1625 2713 2034 2713 
Q 2441 2713 2670 2916 
Q 2900 3119 2900 3481 
Q 2900 3844 2670 4047 
Q 2441 4250 2034 4250 
Q 1625 4250 1398 4047 
Q 1172 3844 1172 3481 
z
" transform="scale(0.015625)"/>
       </defs>
       <use xlink:href="#DejaVuSans-38"/>
       <use xlink:href="#DejaVuSans-30" x="63.623047"/>
      </g>
     </g>
    </g>
    <g id="xtick_6">
     <g id="line2d_6">
      <g>
       <use xlink:href="#m3de540a312" x="1203.465706" y="420.276094" style="stroke: #000000; stroke-width: 0.8"/>
      </g>
     </g>
     <g id="text_6">
      <!-- 100 -->
      <g transform="translate(1179.606331 446.272187) scale(0.25 -0.25)">
       <defs>
        <path id="DejaVuSans-31" d="M 794 531 
L 1825 531 
L 1825 4091 
L 703 3866 
L 703 4441 
L 1819 4666 
L 2450 4666 
L 2450 531 
L 3481 531 
L 3481 0 
L 794 0 
L 794 531 
z
" transform="scale(0.015625)"/>
       </defs>
       <use xlink:href="#DejaVuSans-31"/>
       <use xlink:href="#DejaVuSans-30" x="63.623047"/>
       <use xlink:href="#DejaVuSans-30" x="127.246094"/>
      </g>
     </g>
    </g>
    <g id="xtick_7">
     <g id="line2d_7">
      <g>
       <use xlink:href="#m3de540a312" x="1407.736603" y="420.276094" style="stroke: #000000; stroke-width: 0.8"/>
      </g>
     </g>
     <g id="text_7">
      <!-- 120 -->
      <g transform="translate(1383.877228 446.272187) scale(0.25 -0.25)">
       <use xlink:href="#DejaVuSans-31"/>
       <use xlink:href="#DejaVuSans-32" x="63.623047"/>
       <use xlink:href="#DejaVuSans-30" x="127.246094"/>
      </g>
     </g>
    </g>
    <g id="xtick_8">
     <g id="line2d_8">
      <g>
       <use xlink:href="#m3de540a312" x="1612.0075" y="420.276094" style="stroke: #000000; stroke-width: 0.8"/>
      </g>
     </g>
     <g id="text_8">
      <!-- 140 -->
      <g transform="translate(1588.148125 446.272187) scale(0.25 -0.25)">
       <use xlink:href="#DejaVuSans-31"/>
       <use xlink:href="#DejaVuSans-34" x="63.623047"/>
       <use xlink:href="#DejaVuSans-30" x="127.246094"/>
      </g>
     </g>
    </g>
    <g id="text_9">
     <!-- Time -->
     <g transform="translate(912.436328 474.4675) scale(0.25 -0.25)">
      <defs>
       <path id="DejaVuSans-54" d="M -19 4666 
L 3928 4666 
L 3928 4134 
L 2272 4134 
L 2272 0 
L 1638 0 
L 1638 4134 
L -19 4134 
L -19 4666 
z
" transform="scale(0.015625)"/>
       <path id="DejaVuSans-69" d="M 603 3500 
L 1178 3500 
L 1178 0 
L 603 0 
L 603 3500 
z
M 603 4863 
L 1178 4863 
L 1178 4134 
L 603 4134 
L 603 4863 
z
" transform="scale(0.015625)"/>
       <path id="DejaVuSans-6d" d="M 3328 2828 
Q 3544 3216 3844 3400 
Q 4144 3584 4550 3584 
Q 5097 3584 5394 3201 
Q 5691 2819 5691 2113 
L 5691 0 
L 5113 0 
L 5113 2094 
Q 5113 2597 4934 2840 
Q 4756 3084 4391 3084 
Q 3944 3084 3684 2787 
Q 3425 2491 3425 1978 
L 3425 0 
L 2847 0 
L 2847 2094 
Q 2847 2600 2669 2842 
Q 2491 3084 2119 3084 
Q 1678 3084 1418 2786 
Q 1159 2488 1159 1978 
L 1159 0 
L 581 0 
L 581 3500 
L 1159 3500 
L 1159 2956 
Q 1356 3278 1631 3431 
Q 1906 3584 2284 3584 
Q 2666 3584 2933 3390 
Q 3200 3197 3328 2828 
z
" transform="scale(0.015625)"/>
       <path id="DejaVuSans-65" d="M 3597 1894 
L 3597 1613 
L 953 1613 
Q 991 1019 1311 708 
Q 1631 397 2203 397 
Q 2534 397 2845 478 
Q 3156 559 3463 722 
L 3463 178 
Q 3153 47 2828 -22 
Q 2503 -91 2169 -91 
Q 1331 -91 842 396 
Q 353 884 353 1716 
Q 353 2575 817 3079 
Q 1281 3584 2069 3584 
Q 2775 3584 3186 3129 
Q 3597 2675 3597 1894 
z
M 3022 2063 
Q 3016 2534 2758 2815 
Q 2500 3097 2075 3097 
Q 1594 3097 1305 2825 
Q 1016 2553 972 2059 
L 3022 2063 
z
" transform="scale(0.015625)"/>
      </defs>
      <use xlink:href="#DejaVuSans-54"/>
      <use xlink:href="#DejaVuSans-69" x="57.958984"/>
      <use xlink:href="#DejaVuSans-6d" x="85.742188"/>
      <use xlink:href="#DejaVuSans-65" x="183.154297"/>
     </g>
    </g>
   </g>
   <g id="matplotlib.axis_2">
    <g id="ytick_1">
     <g id="line2d_9">
      <defs>
       <path id="m8ad4798c6a" d="M 0 0 
L -3.5 0 
" style="stroke: #000000; stroke-width: 0.8"/>
      </defs>
      <g>
       <use xlink:href="#m8ad4798c6a" x="106.020313" y="391.635531" style="stroke: #000000; stroke-width: 0.8"/>
      </g>
     </g>
     <g id="text_10">
      <!-- 250 -->
      <g transform="translate(51.301563 401.133578) scale(0.25 -0.25)">
       <defs>
        <path id="DejaVuSans-35" d="M 691 4666 
L 3169 4666 
L 3169 4134 
L 1269 4134 
L 1269 2991 
Q 1406 3038 1543 3061 
Q 1681 3084 1819 3084 
Q 2600 3084 3056 2656 
Q 3513 2228 3513 1497 
Q 3513 744 3044 326 
Q 2575 -91 1722 -91 
Q 1428 -91 1123 -41 
Q 819 9 494 109 
L 494 744 
Q 775 591 1075 516 
Q 1375 441 1709 441 
Q 2250 441 2565 725 
Q 2881 1009 2881 1497 
Q 2881 1984 2565 2268 
Q 2250 2553 1709 2553 
Q 1456 2553 1204 2497 
Q 953 2441 691 2322 
L 691 4666 
z
" transform="scale(0.015625)"/>
       </defs>
       <use xlink:href="#DejaVuSans-32"/>
       <use xlink:href="#DejaVuSans-35" x="63.623047"/>
       <use xlink:href="#DejaVuSans-30" x="127.246094"/>
      </g>
     </g>
    </g>
    <g id="ytick_2">
     <g id="line2d_10">
      <g>
       <use xlink:href="#m8ad4798c6a" x="106.020313" y="347.315065" style="stroke: #000000; stroke-width: 0.8"/>
      </g>
     </g>
     <g id="text_11">
      <!-- 500 -->
      <g transform="translate(51.301563 356.813112) scale(0.25 -0.25)">
       <use xlink:href="#DejaVuSans-35"/>
       <use xlink:href="#DejaVuSans-30" x="63.623047"/>
       <use xlink:href="#DejaVuSans-30" x="127.246094"/>
      </g>
     </g>
    </g>
    <g id="ytick_3">
     <g id="line2d_11">
      <g>
       <use xlink:href="#m8ad4798c6a" x="106.020313" y="302.994598" style="stroke: #000000; stroke-width: 0.8"/>
      </g>
     </g>
     <g id="text_12">
      <!-- 750 -->
      <g transform="translate(51.301563 312.492645) scale(0.25 -0.25)">
       <defs>
        <path id="DejaVuSans-37" d="M 525 4666 
L 3525 4666 
L 3525 4397 
L 1831 0 
L 1172 0 
L 2766 4134 
L 525 4134 
L 525 4666 
z
" transform="scale(0.015625)"/>
       </defs>
       <use xlink:href="#DejaVuSans-37"/>
       <use xlink:href="#DejaVuSans-35" x="63.623047"/>
       <use xlink:href="#DejaVuSans-30" x="127.246094"/>
      </g>
     </g>
    </g>
    <g id="ytick_4">
     <g id="line2d_12">
      <g>
       <use xlink:href="#m8ad4798c6a" x="106.020313" y="258.674132" style="stroke: #000000; stroke-width: 0.8"/>
      </g>
     </g>
     <g id="text_13">
      <!-- 1000 -->
      <g transform="translate(35.395313 268.172179) scale(0.25 -0.25)">
       <use xlink:href="#DejaVuSans-31"/>
       <use xlink:href="#DejaVuSans-30" x="63.623047"/>
       <use xlink:href="#DejaVuSans-30" x="127.246094"/>
       <use xlink:href="#DejaVuSans-30" x="190.869141"/>
      </g>
     </g>
    </g>
    <g id="ytick_5">
     <g id="line2d_13">
      <g>
       <use xlink:href="#m8ad4798c6a" x="106.020313" y="214.353665" style="stroke: #000000; stroke-width: 0.8"/>
      </g>
     </g>
     <g id="text_14">
      <!-- 1250 -->
      <g transform="translate(35.395313 223.851712) scale(0.25 -0.25)">
       <use xlink:href="#DejaVuSans-31"/>
       <use xlink:href="#DejaVuSans-32" x="63.623047"/>
       <use xlink:href="#DejaVuSans-35" x="127.246094"/>
       <use xlink:href="#DejaVuSans-30" x="190.869141"/>
      </g>
     </g>
    </g>
    <g id="ytick_6">
     <g id="line2d_14">
      <g>
       <use xlink:href="#m8ad4798c6a" x="106.020313" y="170.033199" style="stroke: #000000; stroke-width: 0.8"/>
      </g>
     </g>
     <g id="text_15">
      <!-- 1500 -->
      <g transform="translate(35.395313 179.531246) scale(0.25 -0.25)">
       <use xlink:href="#DejaVuSans-31"/>
       <use xlink:href="#DejaVuSans-35" x="63.623047"/>
       <use xlink:href="#DejaVuSans-30" x="127.246094"/>
       <use xlink:href="#DejaVuSans-30" x="190.869141"/>
      </g>
     </g>
    </g>
    <g id="ytick_7">
     <g id="line2d_15">
      <g>
       <use xlink:href="#m8ad4798c6a" x="106.020313" y="125.712732" style="stroke: #000000; stroke-width: 0.8"/>
      </g>
     </g>
     <g id="text_16">
      <!-- 1750 -->
      <g transform="translate(35.395313 135.210779) scale(0.25 -0.25)">
       <use xlink:href="#DejaVuSans-31"/>
       <use xlink:href="#DejaVuSans-37" x="63.623047"/>
       <use xlink:href="#DejaVuSans-35" x="127.246094"/>
       <use xlink:href="#DejaVuSans-30" x="190.869141"/>
      </g>
     </g>
    </g>
    <g id="ytick_8">
     <g id="line2d_16">
      <g>
       <use xlink:href="#m8ad4798c6a" x="106.020313" y="81.392266" style="stroke: #000000; stroke-width: 0.8"/>
      </g>
     </g>
     <g id="text_17">
      <!-- 2000 -->
      <g transform="translate(35.395313 90.890313) scale(0.25 -0.25)">
       <use xlink:href="#DejaVuSans-32"/>
       <use xlink:href="#DejaVuSans-30" x="63.623047"/>
       <use xlink:href="#DejaVuSans-30" x="127.246094"/>
       <use xlink:href="#DejaVuSans-30" x="190.869141"/>
      </g>
     </g>
    </g>
    <g id="ytick_9">
     <g id="line2d_17">
      <g>
       <use xlink:href="#m8ad4798c6a" x="106.020313" y="37.071799" style="stroke: #000000; stroke-width: 0.8"/>
      </g>
     </g>
     <g id="text_18">
      <!-- 2250 -->
      <g transform="translate(35.395313 46.569846) scale(0.25 -0.25)">
       <use xlink:href="#DejaVuSans-32"/>
       <use xlink:href="#DejaVuSans-32" x="63.623047"/>
       <use xlink:href="#DejaVuSans-35" x="127.246094"/>
       <use xlink:href="#DejaVuSans-30" x="190.869141"/>
      </g>
     </g>
    </g>
    <g id="text_19">
     <!-- Flow -->
     <g transform="translate(26.196094 254.769297) rotate(-90) scale(0.25 -0.25)">
      <defs>
       <path id="DejaVuSans-46" d="M 628 4666 
L 3309 4666 
L 3309 4134 
L 1259 4134 
L 1259 2759 
L 3109 2759 
L 3109 2228 
L 1259 2228 
L 1259 0 
L 628 0 
L 628 4666 
z
" transform="scale(0.015625)"/>
       <path id="DejaVuSans-6c" d="M 603 4863 
L 1178 4863 
L 1178 0 
L 603 0 
L 603 4863 
z
" transform="scale(0.015625)"/>
       <path id="DejaVuSans-6f" d="M 1959 3097 
Q 1497 3097 1228 2736 
Q 959 2375 959 1747 
Q 959 1119 1226 758 
Q 1494 397 1959 397 
Q 2419 397 2687 759 
Q 2956 1122 2956 1747 
Q 2956 2369 2687 2733 
Q 2419 3097 1959 3097 
z
M 1959 3584 
Q 2709 3584 3137 3096 
Q 3566 2609 3566 1747 
Q 3566 888 3137 398 
Q 2709 -91 1959 -91 
Q 1206 -91 779 398 
Q 353 888 353 1747 
Q 353 2609 779 3096 
Q 1206 3584 1959 3584 
z
" transform="scale(0.015625)"/>
       <path id="DejaVuSans-77" d="M 269 3500 
L 844 3500 
L 1563 769 
L 2278 3500 
L 2956 3500 
L 3675 769 
L 4391 3500 
L 4966 3500 
L 4050 0 
L 3372 0 
L 2619 2869 
L 1863 0 
L 1184 0 
L 269 3500 
z
" transform="scale(0.015625)"/>
      </defs>
      <use xlink:href="#DejaVuSans-46"/>
      <use xlink:href="#DejaVuSans-6c" x="57.519531"/>
      <use xlink:href="#DejaVuSans-6f" x="85.302734"/>
      <use xlink:href="#DejaVuSans-77" x="146.484375"/>
     </g>
    </g>
   </g>
   <g id="line2d_18">
    <path d="M 182.111222 360.611205 
L 192.324766 376.743855 
L 202.538311 352.101675 
L 212.751856 293.244096 
L 222.965401 208.857928 
L 233.178946 187.584104 
L 243.392491 167.905816 
L 253.606036 173.756118 
L 263.81958 131.917598 
L 274.033125 115.784948 
L 284.24667 147.518402 
L 294.460215 119.507867 
L 304.67376 113.303002 
L 314.887305 70.046226 
L 325.100849 70.932636 
L 335.314394 86.356158 
L 345.527939 49.836094 
L 355.741484 84.583339 
L 365.955029 153.01414 
L 376.168574 183.861184 
L 386.382118 176.060782 
L 396.595663 188.293231 
L 406.809208 250.164602 
L 417.022753 322.672885 
L 427.236298 352.101675 
L 437.449843 365.575097 
L 447.663388 326.395805 
L 457.876932 260.624232 
L 468.090477 168.969508 
L 478.304022 117.025921 
L 488.517567 125.890014 
L 498.731112 126.599142 
L 508.944657 128.194679 
L 519.158201 121.812531 
L 529.371746 106.034445 
L 539.585291 98.588607 
L 549.798836 112.416592 
L 560.012381 75.364682 
L 570.225926 103.375217 
L 580.439471 79.796729 
L 590.653015 64.195925 
L 600.86656 53.381731 
L 611.080105 123.939914 
L 621.29365 166.487562 
L 631.507195 165.42387 
L 641.72074 196.625479 
L 651.934284 229.06806 
L 662.147829 280.834365 
L 672.361374 353.51993 
L 682.574919 366.461506 
L 692.788464 338.805535 
L 703.002009 291.825841 
L 713.215554 231.727288 
L 723.429098 193.788969 
L 733.642643 181.379238 
L 743.856188 120.216995 
L 754.069733 137.236054 
L 764.283278 113.12572 
L 774.496823 118.976021 
L 784.710367 107.275418 
L 794.923912 123.762632 
L 805.137457 74.123709 
L 815.351002 76.960219 
L 825.564547 75.896528 
L 835.778092 95.397533 
L 845.991636 140.958973 
L 856.205181 170.033199 
L 866.418726 157.268905 
L 876.632271 151.064039 
L 886.845816 187.406822 
L 897.059361 227.649805 
L 907.272906 238.463999 
L 917.48645 271.438426 
L 927.699995 319.127248 
L 937.91354 322.672885 
L 948.127085 326.92765 
L 958.34063 312.745101 
L 968.554175 291.116713 
L 978.767719 236.513899 
L 988.981264 188.293231 
L 999.194809 145.568301 
L 1009.408354 142.731792 
L 1019.621899 142.909073 
L 1029.835444 141.313537 
L 1040.048989 126.067296 
L 1050.262533 137.590617 
L 1060.476078 127.485551 
L 1070.689623 127.130987 
L 1080.903168 106.743573 
L 1091.116713 124.826323 
L 1101.330258 169.501353 
L 1111.543802 211.694437 
L 1121.757347 199.461989 
L 1131.970892 202.830344 
L 1142.184437 222.508631 
L 1152.397982 246.441683 
L 1162.611527 275.870473 
L 1172.825071 316.113456 
L 1183.038616 317.177148 
L 1193.252161 343.0603 
L 1203.465706 365.220533 
L 1213.679251 341.642045 
L 1223.892796 302.462753 
L 1234.106341 264.878997 
L 1244.319885 188.470513 
L 1254.53343 143.618201 
L 1264.746975 162.232797 
L 1274.96052 158.687159 
L 1285.174065 147.872966 
L 1295.38761 136.349644 
L 1305.601154 127.485551 
L 1315.814699 135.285953 
L 1326.028244 140.958973 
L 1336.241789 133.335853 
L 1346.455334 221.090376 
L 1356.668879 214.885511 
L 1366.882424 190.420613 
L 1377.095968 228.713497 
L 1387.309513 261.865205 
L 1397.523058 325.863959 
L 1407.736603 356.179158 
L 1417.950148 371.779962 
L 1428.163693 360.788487 
L 1438.377237 352.456239 
L 1448.590782 361.674896 
L 1458.804327 333.487079 
L 1469.017872 307.072081 
L 1479.231417 255.128495 
L 1489.444962 205.489572 
L 1499.658507 163.651052 
L 1509.872051 156.559777 
L 1520.085596 156.559777 
L 1530.299141 136.704208 
L 1540.512686 122.344377 
L 1550.726231 136.88149 
L 1560.939776 136.526926 
L 1571.15332 128.37196 
L 1581.366865 221.622222 
L 1591.58041 258.49685 
L 1601.793955 254.773931 
L 1612.0075 277.111446 
L 1622.221045 306.894799 
L 1632.434589 347.669629 
L 1642.648134 374.971036 
L 1652.861679 395.003887 
L 1663.075224 398.904088 
L 1673.288769 364.688688 
L 1683.502314 290.230304 
L 1693.715859 218.431148 
L 1703.929403 178.365447 
L 1703.929403 178.365447 
" clip-path="url(#p7e2f715560)" style="fill: none; stroke: #000000; stroke-width: 1.5; stroke-linecap: square"/>
   </g>
   <g id="line2d_19">
    <path d="M 182.111222 358.259376 
L 192.324766 370.550474 
L 202.538311 330.597101 
L 212.751856 259.603596 
L 222.965401 194.80287 
L 233.178946 161.130846 
L 243.392491 155.696411 
L 253.606036 157.206756 
L 263.81958 149.046505 
L 274.033125 133.212991 
L 284.24667 123.258585 
L 294.460215 126.048344 
L 304.67376 132.639534 
L 314.887305 127.8949 
L 325.100849 108.154707 
L 335.314394 87.549778 
L 345.527939 85.370699 
L 355.741484 107.032869 
L 365.955029 138.580011 
L 376.168574 161.22611 
L 386.382118 171.530716 
L 396.595663 185.977105 
L 406.809208 223.696134 
L 417.022753 283.428614 
L 427.236298 338.045012 
L 437.449843 354.050347 
L 447.663388 319.441576 
L 457.876932 254.517545 
L 468.090477 195.615256 
L 478.304022 166.635952 
L 488.517567 163.807221 
L 498.731112 165.659036 
L 508.944657 156.278113 
L 519.158201 138.775513 
L 529.371746 127.541587 
L 539.585291 129.69061 
L 549.798836 136.107232 
L 560.012381 131.333316 
L 570.225926 111.347671 
L 580.439471 89.969225 
L 590.653015 86.489965 
L 600.86656 106.807875 
L 611.080105 137.493136 
L 621.29365 159.389704 
L 631.507195 167.40745 
L 641.72074 176.317826 
L 651.934284 205.809513 
L 662.147829 258.677655 
L 672.361374 313.436229 
L 682.574919 339.406288 
L 692.788464 321.188289 
L 703.002009 270.681092 
L 713.215554 216.53373 
L 723.429098 181.479831 
L 733.642643 167.871586 
L 743.856188 162.41823 
L 754.069733 152.71801 
L 764.283278 138.588463 
L 774.496823 128.605603 
L 784.710367 127.913687 
L 794.923912 131.312154 
L 805.137457 128.764498 
L 815.351002 116.876618 
L 825.564547 103.773621 
L 835.778092 101.976498 
L 845.991636 116.428316 
L 856.205181 139.769883 
L 866.418726 159.554983 
L 876.632271 170.166443 
L 886.845816 177.776844 
L 897.059361 193.83513 
L 907.272906 223.703454 
L 917.48645 261.173731 
L 927.699995 293.219597 
L 937.91354 309.521249 
L 948.127085 307.833095 
L 958.34063 291.77613 
L 968.554175 265.561408 
L 978.767719 232.138454 
L 988.981264 195.907971 
L 999.194809 164.980905 
L 1009.408354 148.104491 
L 1019.621899 147.755387 
L 1029.835444 156.409191 
L 1040.048989 161.151182 
L 1050.262533 153.837804 
L 1060.476078 137.924828 
L 1070.689623 125.405163 
L 1080.903168 126.284034 
L 1091.116713 140.069 
L 1101.330258 156.929022 
L 1111.543802 167.143414 
L 1121.757347 169.890933 
L 1131.970892 173.475494 
L 1142.184437 187.436262 
L 1152.397982 214.360985 
L 1162.611527 248.653944 
L 1172.825071 282.121381 
L 1183.038616 309.773393 
L 1193.252161 330.085479 
L 1203.465706 340.760268 
L 1213.679251 336.306289 
L 1223.892796 311.761024 
L 1234.106341 269.634668 
L 1244.319885 222.410886 
L 1254.53343 186.217458 
L 1264.746975 169.883656 
L 1274.96052 168.986193 
L 1285.174065 170.751 
L 1295.38761 165.801804 
L 1305.601154 156.118228 
L 1315.814699 151.917624 
L 1326.028244 160.708949 
L 1336.241789 179.447163 
L 1346.455334 197.849171 
L 1366.882424 221.769713 
L 1377.095968 247.386864 
L 1387.309513 293.811516 
L 1397.523058 350.114045 
L 1407.736603 390.884835 
L 1417.950148 393.336439 
L 1428.163693 354.324139 
L 1438.377237 292.971585 
L 1448.590782 236.714384 
L 1458.804327 202.625445 
L 1469.017872 189.190654 
L 1479.231417 183.587458 
L 1489.444962 175.712763 
L 1499.658507 165.520819 
L 1509.872051 158.398442 
L 1520.085596 155.66905 
L 1530.299141 151.538137 
L 1540.512686 140.03284 
L 1550.726231 124.095259 
L 1560.939776 115.994562 
L 1571.15332 127.052938 
L 1581.366865 156.423752 
L 1591.58041 190.891981 
L 1601.793955 217.234489 
L 1612.0075 235.518032 
L 1622.221045 259.383442 
L 1632.434589 301.294297 
L 1642.648134 355.988804 
L 1652.861679 398.793285 
L 1663.075224 402.636094 
L 1673.288769 359.980343 
L 1683.502314 290.290758 
L 1693.715859 225.991108 
L 1703.929403 188.999651 
L 1703.929403 188.999651 
" clip-path="url(#p7e2f715560)" style="fill: none; stroke: #7028e4; stroke-width: 3; stroke-linecap: square"/>
   </g>
   <g id="patch_3">
    <path d="M 106.020313 420.276094 
L 106.020313 32.196094 
" style="fill: none; stroke: #000000; stroke-width: 0.8; stroke-linejoin: miter; stroke-linecap: square"/>
   </g>
   <g id="patch_4">
    <path d="M 1780.020313 420.276094 
L 1780.020313 32.196094 
" style="fill: none; stroke: #000000; stroke-width: 0.8; stroke-linejoin: miter; stroke-linecap: square"/>
   </g>
   <g id="patch_5">
    <path d="M 106.020313 420.276094 
L 1780.020312 420.276094 
" style="fill: none; stroke: #000000; stroke-width: 0.8; stroke-linejoin: miter; stroke-linecap: square"/>
   </g>
   <g id="patch_6">
    <path d="M 106.020313 32.196094 
L 1780.020312 32.196094 
" style="fill: none; stroke: #000000; stroke-width: 0.8; stroke-linejoin: miter; stroke-linecap: square"/>
   </g>
   <g id="text_20">
    <!-- Result of DFT -->
    <g transform="translate(860.174609 26.196094) scale(0.25 -0.25)">
     <defs>
      <path id="DejaVuSans-52" d="M 2841 2188 
Q 3044 2119 3236 1894 
Q 3428 1669 3622 1275 
L 4263 0 
L 3584 0 
L 2988 1197 
Q 2756 1666 2539 1819 
Q 2322 1972 1947 1972 
L 1259 1972 
L 1259 0 
L 628 0 
L 628 4666 
L 2053 4666 
Q 2853 4666 3247 4331 
Q 3641 3997 3641 3322 
Q 3641 2881 3436 2590 
Q 3231 2300 2841 2188 
z
M 1259 4147 
L 1259 2491 
L 2053 2491 
Q 2509 2491 2742 2702 
Q 2975 2913 2975 3322 
Q 2975 3731 2742 3939 
Q 2509 4147 2053 4147 
L 1259 4147 
z
" transform="scale(0.015625)"/>
      <path id="DejaVuSans-73" d="M 2834 3397 
L 2834 2853 
Q 2591 2978 2328 3040 
Q 2066 3103 1784 3103 
Q 1356 3103 1142 2972 
Q 928 2841 928 2578 
Q 928 2378 1081 2264 
Q 1234 2150 1697 2047 
L 1894 2003 
Q 2506 1872 2764 1633 
Q 3022 1394 3022 966 
Q 3022 478 2636 193 
Q 2250 -91 1575 -91 
Q 1294 -91 989 -36 
Q 684 19 347 128 
L 347 722 
Q 666 556 975 473 
Q 1284 391 1588 391 
Q 1994 391 2212 530 
Q 2431 669 2431 922 
Q 2431 1156 2273 1281 
Q 2116 1406 1581 1522 
L 1381 1569 
Q 847 1681 609 1914 
Q 372 2147 372 2553 
Q 372 3047 722 3315 
Q 1072 3584 1716 3584 
Q 2034 3584 2315 3537 
Q 2597 3491 2834 3397 
z
" transform="scale(0.015625)"/>
      <path id="DejaVuSans-75" d="M 544 1381 
L 544 3500 
L 1119 3500 
L 1119 1403 
Q 1119 906 1312 657 
Q 1506 409 1894 409 
Q 2359 409 2629 706 
Q 2900 1003 2900 1516 
L 2900 3500 
L 3475 3500 
L 3475 0 
L 2900 0 
L 2900 538 
Q 2691 219 2414 64 
Q 2138 -91 1772 -91 
Q 1169 -91 856 284 
Q 544 659 544 1381 
z
M 1991 3584 
L 1991 3584 
z
" transform="scale(0.015625)"/>
      <path id="DejaVuSans-74" d="M 1172 4494 
L 1172 3500 
L 2356 3500 
L 2356 3053 
L 1172 3053 
L 1172 1153 
Q 1172 725 1289 603 
Q 1406 481 1766 481 
L 2356 481 
L 2356 0 
L 1766 0 
Q 1100 0 847 248 
Q 594 497 594 1153 
L 594 3053 
L 172 3053 
L 172 3500 
L 594 3500 
L 594 4494 
L 1172 4494 
z
" transform="scale(0.015625)"/>
      <path id="DejaVuSans-20" transform="scale(0.015625)"/>
      <path id="DejaVuSans-66" d="M 2375 4863 
L 2375 4384 
L 1825 4384 
Q 1516 4384 1395 4259 
Q 1275 4134 1275 3809 
L 1275 3500 
L 2222 3500 
L 2222 3053 
L 1275 3053 
L 1275 0 
L 697 0 
L 697 3053 
L 147 3053 
L 147 3500 
L 697 3500 
L 697 3744 
Q 697 4328 969 4595 
Q 1241 4863 1831 4863 
L 2375 4863 
z
" transform="scale(0.015625)"/>
      <path id="DejaVuSans-44" d="M 1259 4147 
L 1259 519 
L 2022 519 
Q 2988 519 3436 956 
Q 3884 1394 3884 2338 
Q 3884 3275 3436 3711 
Q 2988 4147 2022 4147 
L 1259 4147 
z
M 628 4666 
L 1925 4666 
Q 3281 4666 3915 4102 
Q 4550 3538 4550 2338 
Q 4550 1131 3912 565 
Q 3275 0 1925 0 
L 628 0 
L 628 4666 
z
" transform="scale(0.015625)"/>
     </defs>
     <use xlink:href="#DejaVuSans-52"/>
     <use xlink:href="#DejaVuSans-65" x="64.982422"/>
     <use xlink:href="#DejaVuSans-73" x="126.505859"/>
     <use xlink:href="#DejaVuSans-75" x="178.605469"/>
     <use xlink:href="#DejaVuSans-6c" x="241.984375"/>
     <use xlink:href="#DejaVuSans-74" x="269.767578"/>
     <use xlink:href="#DejaVuSans-20" x="308.976562"/>
     <use xlink:href="#DejaVuSans-6f" x="340.763672"/>
     <use xlink:href="#DejaVuSans-66" x="401.945312"/>
     <use xlink:href="#DejaVuSans-20" x="437.150391"/>
     <use xlink:href="#DejaVuSans-44" x="468.9375"/>
     <use xlink:href="#DejaVuSans-46" x="545.939453"/>
     <use xlink:href="#DejaVuSans-54" x="601.708984"/>
    </g>
   </g>
   <g id="legend_1">
    <g id="patch_7">
     <path d="M 1634.059375 125.586719 
L 1762.520313 125.586719 
Q 1767.520313 125.586719 1767.520313 120.586719 
L 1767.520313 49.696094 
Q 1767.520313 44.696094 1762.520313 44.696094 
L 1634.059375 44.696094 
Q 1629.059375 44.696094 1629.059375 49.696094 
L 1629.059375 120.586719 
Q 1629.059375 125.586719 1634.059375 125.586719 
z
" style="fill: #ffffff; opacity: 0.8; stroke: #cccccc; stroke-linejoin: miter"/>
    </g>
    <g id="line2d_20">
     <path d="M 1639.059375 64.942187 
L 1664.059375 64.942187 
L 1689.059375 64.942187 
" style="fill: none; stroke: #000000; stroke-width: 1.5; stroke-linecap: square"/>
    </g>
    <g id="text_21">
     <!-- fact -->
     <g transform="translate(1709.059375 73.692187) scale(0.25 -0.25)">
      <defs>
       <path id="DejaVuSans-61" d="M 2194 1759 
Q 1497 1759 1228 1600 
Q 959 1441 959 1056 
Q 959 750 1161 570 
Q 1363 391 1709 391 
Q 2188 391 2477 730 
Q 2766 1069 2766 1631 
L 2766 1759 
L 2194 1759 
z
M 3341 1997 
L 3341 0 
L 2766 0 
L 2766 531 
Q 2569 213 2275 61 
Q 1981 -91 1556 -91 
Q 1019 -91 701 211 
Q 384 513 384 1019 
Q 384 1609 779 1909 
Q 1175 2209 1959 2209 
L 2766 2209 
L 2766 2266 
Q 2766 2663 2505 2880 
Q 2244 3097 1772 3097 
Q 1472 3097 1187 3025 
Q 903 2953 641 2809 
L 641 3341 
Q 956 3463 1253 3523 
Q 1550 3584 1831 3584 
Q 2591 3584 2966 3190 
Q 3341 2797 3341 1997 
z
" transform="scale(0.015625)"/>
       <path id="DejaVuSans-63" d="M 3122 3366 
L 3122 2828 
Q 2878 2963 2633 3030 
Q 2388 3097 2138 3097 
Q 1578 3097 1268 2742 
Q 959 2388 959 1747 
Q 959 1106 1268 751 
Q 1578 397 2138 397 
Q 2388 397 2633 464 
Q 2878 531 3122 666 
L 3122 134 
Q 2881 22 2623 -34 
Q 2366 -91 2075 -91 
Q 1284 -91 818 406 
Q 353 903 353 1747 
Q 353 2603 823 3093 
Q 1294 3584 2113 3584 
Q 2378 3584 2631 3529 
Q 2884 3475 3122 3366 
z
" transform="scale(0.015625)"/>
      </defs>
      <use xlink:href="#DejaVuSans-66"/>
      <use xlink:href="#DejaVuSans-61" x="35.205078"/>
      <use xlink:href="#DejaVuSans-63" x="96.484375"/>
      <use xlink:href="#DejaVuSans-74" x="151.464844"/>
     </g>
    </g>
    <g id="line2d_21">
     <path d="M 1639.059375 101.6375 
L 1664.059375 101.6375 
L 1689.059375 101.6375 
" style="fill: none; stroke: #7028e4; stroke-width: 3; stroke-linecap: square"/>
    </g>
    <g id="text_22">
     <!-- DFT -->
     <g transform="translate(1709.059375 110.3875) scale(0.25 -0.25)">
      <use xlink:href="#DejaVuSans-44"/>
      <use xlink:href="#DejaVuSans-46" x="77.001953"/>
      <use xlink:href="#DejaVuSans-54" x="132.771484"/>
     </g>
    </g>
   </g>
  </g>
 </g>
 <defs>
  <clipPath id="p7e2f715560">
   <rect x="106.020313" y="32.196094" width="1674" height="388.08"/>
  </clipPath>
 </defs>
</svg>
