<?xml version="1.0" encoding="utf-8" standalone="no"?>
<!DOCTYPE svg PUBLIC "-//W3C//DTD SVG 1.1//EN"
  "http://www.w3.org/Graphics/SVG/1.1/DTD/svg11.dtd">
<svg xmlns:xlink="http://www.w3.org/1999/xlink" width="1787.220313pt" height="486.866719pt" viewBox="0 0 1787.220313 486.866719" xmlns="http://www.w3.org/2000/svg" version="1.1">
 <metadata>
  <rdf:RDF xmlns:dc="http://purl.org/dc/elements/1.1/" xmlns:cc="http://creativecommons.org/ns#" xmlns:rdf="http://www.w3.org/1999/02/22-rdf-syntax-ns#">
   <cc:Work>
    <dc:type rdf:resource="http://purl.org/dc/dcmitype/StillImage"/>
    <dc:date>2024-05-30T14:49:56.516952</dc:date>
    <dc:format>image/svg+xml</dc:format>
    <dc:creator>
     <cc:Agent>
      <dc:title>Matplotlib v3.8.3, https://matplotlib.org/</dc:title>
     </cc:Agent>
    </dc:creator>
   </cc:Work>
  </rdf:RDF>
 </metadata>
 <defs>
  <style type="text/css">*{stroke-linejoin: round; stroke-linecap: butt}</style>
 </defs>
 <g id="figure_1">
  <g id="patch_1">
   <path d="M 0 486.866719 
L 1787.220313 486.866719 
L 1787.220313 0 
L 0 0 
L 0 486.866719 
z
" style="fill: none"/>
  </g>
  <g id="axes_1">
   <g id="patch_2">
    <path d="M 106.020313 420.276094 
L 1780.020313 420.276094 
L 1780.020313 32.196094 
L 106.020313 32.196094 
z
" style="fill: #ffffff"/>
   </g>
   <g id="matplotlib.axis_1">
    <g id="xtick_1">
     <g id="line2d_1">
      <defs>
       <path id="m84b4be2b1c" d="M 0 0 
L 0 3.5 
" style="stroke: #000000; stroke-width: 0.8"/>
      </defs>
      <g>
       <use xlink:href="#m84b4be2b1c" x="182.111222" y="420.276094" style="stroke: #000000; stroke-width: 0.8"/>
      </g>
     </g>
     <g id="text_1">
      <!-- 0 -->
      <g transform="translate(174.158097 446.272187) scale(0.25 -0.25)">
       <defs>
        <path id="DejaVuSans-30" d="M 2034 4250 
Q 1547 4250 1301 3770 
Q 1056 3291 1056 2328 
Q 1056 1369 1301 889 
Q 1547 409 2034 409 
Q 2525 409 2770 889 
Q 3016 1369 3016 2328 
Q 3016 3291 2770 3770 
Q 2525 4250 2034 4250 
z
M 2034 4750 
Q 2819 4750 3233 4129 
Q 3647 3509 3647 2328 
Q 3647 1150 3233 529 
Q 2819 -91 2034 -91 
Q 1250 -91 836 529 
Q 422 1150 422 2328 
Q 422 3509 836 4129 
Q 1250 4750 2034 4750 
z
" transform="scale(0.015625)"/>
       </defs>
       <use xlink:href="#DejaVuSans-30"/>
      </g>
     </g>
    </g>
    <g id="xtick_2">
     <g id="line2d_2">
      <g>
       <use xlink:href="#m84b4be2b1c" x="386.382118" y="420.276094" style="stroke: #000000; stroke-width: 0.8"/>
      </g>
     </g>
     <g id="text_2">
      <!-- 20 -->
      <g transform="translate(370.475868 446.272187) scale(0.25 -0.25)">
       <defs>
        <path id="DejaVuSans-32" d="M 1228 531 
L 3431 531 
L 3431 0 
L 469 0 
L 469 531 
Q 828 903 1448 1529 
Q 2069 2156 2228 2338 
Q 2531 2678 2651 2914 
Q 2772 3150 2772 3378 
Q 2772 3750 2511 3984 
Q 2250 4219 1831 4219 
Q 1534 4219 1204 4116 
Q 875 4013 500 3803 
L 500 4441 
Q 881 4594 1212 4672 
Q 1544 4750 1819 4750 
Q 2544 4750 2975 4387 
Q 3406 4025 3406 3419 
Q 3406 3131 3298 2873 
Q 3191 2616 2906 2266 
Q 2828 2175 2409 1742 
Q 1991 1309 1228 531 
z
" transform="scale(0.015625)"/>
       </defs>
       <use xlink:href="#DejaVuSans-32"/>
       <use xlink:href="#DejaVuSans-30" x="63.623047"/>
      </g>
     </g>
    </g>
    <g id="xtick_3">
     <g id="line2d_3">
      <g>
       <use xlink:href="#m84b4be2b1c" x="590.653015" y="420.276094" style="stroke: #000000; stroke-width: 0.8"/>
      </g>
     </g>
     <g id="text_3">
      <!-- 40 -->
      <g transform="translate(574.746765 446.272187) scale(0.25 -0.25)">
       <defs>
        <path id="DejaVuSans-34" d="M 2419 4116 
L 825 1625 
L 2419 1625 
L 2419 4116 
z
M 2253 4666 
L 3047 4666 
L 3047 1625 
L 3713 1625 
L 3713 1100 
L 3047 1100 
L 3047 0 
L 2419 0 
L 2419 1100 
L 313 1100 
L 313 1709 
L 2253 4666 
z
" transform="scale(0.015625)"/>
       </defs>
       <use xlink:href="#DejaVuSans-34"/>
       <use xlink:href="#DejaVuSans-30" x="63.623047"/>
      </g>
     </g>
    </g>
    <g id="xtick_4">
     <g id="line2d_4">
      <g>
       <use xlink:href="#m84b4be2b1c" x="794.923912" y="420.276094" style="stroke: #000000; stroke-width: 0.8"/>
      </g>
     </g>
     <g id="text_4">
      <!-- 60 -->
      <g transform="translate(779.017662 446.272187) scale(0.25 -0.25)">
       <defs>
        <path id="DejaVuSans-36" d="M 2113 2584 
Q 1688 2584 1439 2293 
Q 1191 2003 1191 1497 
Q 1191 994 1439 701 
Q 1688 409 2113 409 
Q 2538 409 2786 701 
Q 3034 994 3034 1497 
Q 3034 2003 2786 2293 
Q 2538 2584 2113 2584 
z
M 3366 4563 
L 3366 3988 
Q 3128 4100 2886 4159 
Q 2644 4219 2406 4219 
Q 1781 4219 1451 3797 
Q 1122 3375 1075 2522 
Q 1259 2794 1537 2939 
Q 1816 3084 2150 3084 
Q 2853 3084 3261 2657 
Q 3669 2231 3669 1497 
Q 3669 778 3244 343 
Q 2819 -91 2113 -91 
Q 1303 -91 875 529 
Q 447 1150 447 2328 
Q 447 3434 972 4092 
Q 1497 4750 2381 4750 
Q 2619 4750 2861 4703 
Q 3103 4656 3366 4563 
z
" transform="scale(0.015625)"/>
       </defs>
       <use xlink:href="#DejaVuSans-36"/>
       <use xlink:href="#DejaVuSans-30" x="63.623047"/>
      </g>
     </g>
    </g>
    <g id="xtick_5">
     <g id="line2d_5">
      <g>
       <use xlink:href="#m84b4be2b1c" x="999.194809" y="420.276094" style="stroke: #000000; stroke-width: 0.8"/>
      </g>
     </g>
     <g id="text_5">
      <!-- 80 -->
      <g transform="translate(983.288559 446.272187) scale(0.25 -0.25)">
       <defs>
        <path id="DejaVuSans-38" d="M 2034 2216 
Q 1584 2216 1326 1975 
Q 1069 1734 1069 1313 
Q 1069 891 1326 650 
Q 1584 409 2034 409 
Q 2484 409 2743 651 
Q 3003 894 3003 1313 
Q 3003 1734 2745 1975 
Q 2488 2216 2034 2216 
z
M 1403 2484 
Q 997 2584 770 2862 
Q 544 3141 544 3541 
Q 544 4100 942 4425 
Q 1341 4750 2034 4750 
Q 2731 4750 3128 4425 
Q 3525 4100 3525 3541 
Q 3525 3141 3298 2862 
Q 3072 2584 2669 2484 
Q 3125 2378 3379 2068 
Q 3634 1759 3634 1313 
Q 3634 634 3220 271 
Q 2806 -91 2034 -91 
Q 1263 -91 848 271 
Q 434 634 434 1313 
Q 434 1759 690 2068 
Q 947 2378 1403 2484 
z
M 1172 3481 
Q 1172 3119 1398 2916 
Q 1625 2713 2034 2713 
Q 2441 2713 2670 2916 
Q 2900 3119 2900 3481 
Q 2900 3844 2670 4047 
Q 2441 4250 2034 4250 
Q 1625 4250 1398 4047 
Q 1172 3844 1172 3481 
z
" transform="scale(0.015625)"/>
       </defs>
       <use xlink:href="#DejaVuSans-38"/>
       <use xlink:href="#DejaVuSans-30" x="63.623047"/>
      </g>
     </g>
    </g>
    <g id="xtick_6">
     <g id="line2d_6">
      <g>
       <use xlink:href="#m84b4be2b1c" x="1203.465706" y="420.276094" style="stroke: #000000; stroke-width: 0.8"/>
      </g>
     </g>
     <g id="text_6">
      <!-- 100 -->
      <g transform="translate(1179.606331 446.272187) scale(0.25 -0.25)">
       <defs>
        <path id="DejaVuSans-31" d="M 794 531 
L 1825 531 
L 1825 4091 
L 703 3866 
L 703 4441 
L 1819 4666 
L 2450 4666 
L 2450 531 
L 3481 531 
L 3481 0 
L 794 0 
L 794 531 
z
" transform="scale(0.015625)"/>
       </defs>
       <use xlink:href="#DejaVuSans-31"/>
       <use xlink:href="#DejaVuSans-30" x="63.623047"/>
       <use xlink:href="#DejaVuSans-30" x="127.246094"/>
      </g>
     </g>
    </g>
    <g id="xtick_7">
     <g id="line2d_7">
      <g>
       <use xlink:href="#m84b4be2b1c" x="1407.736603" y="420.276094" style="stroke: #000000; stroke-width: 0.8"/>
      </g>
     </g>
     <g id="text_7">
      <!-- 120 -->
      <g transform="translate(1383.877228 446.272187) scale(0.25 -0.25)">
       <use xlink:href="#DejaVuSans-31"/>
       <use xlink:href="#DejaVuSans-32" x="63.623047"/>
       <use xlink:href="#DejaVuSans-30" x="127.246094"/>
      </g>
     </g>
    </g>
    <g id="xtick_8">
     <g id="line2d_8">
      <g>
       <use xlink:href="#m84b4be2b1c" x="1612.0075" y="420.276094" style="stroke: #000000; stroke-width: 0.8"/>
      </g>
     </g>
     <g id="text_8">
      <!-- 140 -->
      <g transform="translate(1588.148125 446.272187) scale(0.25 -0.25)">
       <use xlink:href="#DejaVuSans-31"/>
       <use xlink:href="#DejaVuSans-34" x="63.623047"/>
       <use xlink:href="#DejaVuSans-30" x="127.246094"/>
      </g>
     </g>
    </g>
    <g id="text_9">
     <!-- Time -->
     <g transform="translate(912.436328 474.4675) scale(0.25 -0.25)">
      <defs>
       <path id="DejaVuSans-54" d="M -19 4666 
L 3928 4666 
L 3928 4134 
L 2272 4134 
L 2272 0 
L 1638 0 
L 1638 4134 
L -19 4134 
L -19 4666 
z
" transform="scale(0.015625)"/>
       <path id="DejaVuSans-69" d="M 603 3500 
L 1178 3500 
L 1178 0 
L 603 0 
L 603 3500 
z
M 603 4863 
L 1178 4863 
L 1178 4134 
L 603 4134 
L 603 4863 
z
" transform="scale(0.015625)"/>
       <path id="DejaVuSans-6d" d="M 3328 2828 
Q 3544 3216 3844 3400 
Q 4144 3584 4550 3584 
Q 5097 3584 5394 3201 
Q 5691 2819 5691 2113 
L 5691 0 
L 5113 0 
L 5113 2094 
Q 5113 2597 4934 2840 
Q 4756 3084 4391 3084 
Q 3944 3084 3684 2787 
Q 3425 2491 3425 1978 
L 3425 0 
L 2847 0 
L 2847 2094 
Q 2847 2600 2669 2842 
Q 2491 3084 2119 3084 
Q 1678 3084 1418 2786 
Q 1159 2488 1159 1978 
L 1159 0 
L 581 0 
L 581 3500 
L 1159 3500 
L 1159 2956 
Q 1356 3278 1631 3431 
Q 1906 3584 2284 3584 
Q 2666 3584 2933 3390 
Q 3200 3197 3328 2828 
z
" transform="scale(0.015625)"/>
       <path id="DejaVuSans-65" d="M 3597 1894 
L 3597 1613 
L 953 1613 
Q 991 1019 1311 708 
Q 1631 397 2203 397 
Q 2534 397 2845 478 
Q 3156 559 3463 722 
L 3463 178 
Q 3153 47 2828 -22 
Q 2503 -91 2169 -91 
Q 1331 -91 842 396 
Q 353 884 353 1716 
Q 353 2575 817 3079 
Q 1281 3584 2069 3584 
Q 2775 3584 3186 3129 
Q 3597 2675 3597 1894 
z
M 3022 2063 
Q 3016 2534 2758 2815 
Q 2500 3097 2075 3097 
Q 1594 3097 1305 2825 
Q 1016 2553 972 2059 
L 3022 2063 
z
" transform="scale(0.015625)"/>
      </defs>
      <use xlink:href="#DejaVuSans-54"/>
      <use xlink:href="#DejaVuSans-69" x="57.958984"/>
      <use xlink:href="#DejaVuSans-6d" x="85.742188"/>
      <use xlink:href="#DejaVuSans-65" x="183.154297"/>
     </g>
    </g>
   </g>
   <g id="matplotlib.axis_2">
    <g id="ytick_1">
     <g id="line2d_9">
      <defs>
       <path id="mba3de4c018" d="M 0 0 
L -3.5 0 
" style="stroke: #000000; stroke-width: 0.8"/>
      </defs>
      <g>
       <use xlink:href="#mba3de4c018" x="106.020313" y="395.289827" style="stroke: #000000; stroke-width: 0.8"/>
      </g>
     </g>
     <g id="text_10">
      <!-- 250 -->
      <g transform="translate(51.301563 404.787873) scale(0.25 -0.25)">
       <defs>
        <path id="DejaVuSans-35" d="M 691 4666 
L 3169 4666 
L 3169 4134 
L 1269 4134 
L 1269 2991 
Q 1406 3038 1543 3061 
Q 1681 3084 1819 3084 
Q 2600 3084 3056 2656 
Q 3513 2228 3513 1497 
Q 3513 744 3044 326 
Q 2575 -91 1722 -91 
Q 1428 -91 1123 -41 
Q 819 9 494 109 
L 494 744 
Q 775 591 1075 516 
Q 1375 441 1709 441 
Q 2250 441 2565 725 
Q 2881 1009 2881 1497 
Q 2881 1984 2565 2268 
Q 2250 2553 1709 2553 
Q 1456 2553 1204 2497 
Q 953 2441 691 2322 
L 691 4666 
z
" transform="scale(0.015625)"/>
       </defs>
       <use xlink:href="#DejaVuSans-32"/>
       <use xlink:href="#DejaVuSans-35" x="63.623047"/>
       <use xlink:href="#DejaVuSans-30" x="127.246094"/>
      </g>
     </g>
    </g>
    <g id="ytick_2">
     <g id="line2d_10">
      <g>
       <use xlink:href="#mba3de4c018" x="106.020313" y="350.495515" style="stroke: #000000; stroke-width: 0.8"/>
      </g>
     </g>
     <g id="text_11">
      <!-- 500 -->
      <g transform="translate(51.301563 359.993562) scale(0.25 -0.25)">
       <use xlink:href="#DejaVuSans-35"/>
       <use xlink:href="#DejaVuSans-30" x="63.623047"/>
       <use xlink:href="#DejaVuSans-30" x="127.246094"/>
      </g>
     </g>
    </g>
    <g id="ytick_3">
     <g id="line2d_11">
      <g>
       <use xlink:href="#mba3de4c018" x="106.020313" y="305.701203" style="stroke: #000000; stroke-width: 0.8"/>
      </g>
     </g>
     <g id="text_12">
      <!-- 750 -->
      <g transform="translate(51.301563 315.19925) scale(0.25 -0.25)">
       <defs>
        <path id="DejaVuSans-37" d="M 525 4666 
L 3525 4666 
L 3525 4397 
L 1831 0 
L 1172 0 
L 2766 4134 
L 525 4134 
L 525 4666 
z
" transform="scale(0.015625)"/>
       </defs>
       <use xlink:href="#DejaVuSans-37"/>
       <use xlink:href="#DejaVuSans-35" x="63.623047"/>
       <use xlink:href="#DejaVuSans-30" x="127.246094"/>
      </g>
     </g>
    </g>
    <g id="ytick_4">
     <g id="line2d_12">
      <g>
       <use xlink:href="#mba3de4c018" x="106.020313" y="260.906891" style="stroke: #000000; stroke-width: 0.8"/>
      </g>
     </g>
     <g id="text_13">
      <!-- 1000 -->
      <g transform="translate(35.395313 270.404938) scale(0.25 -0.25)">
       <use xlink:href="#DejaVuSans-31"/>
       <use xlink:href="#DejaVuSans-30" x="63.623047"/>
       <use xlink:href="#DejaVuSans-30" x="127.246094"/>
       <use xlink:href="#DejaVuSans-30" x="190.869141"/>
      </g>
     </g>
    </g>
    <g id="ytick_5">
     <g id="line2d_13">
      <g>
       <use xlink:href="#mba3de4c018" x="106.020313" y="216.112579" style="stroke: #000000; stroke-width: 0.8"/>
      </g>
     </g>
     <g id="text_14">
      <!-- 1250 -->
      <g transform="translate(35.395313 225.610626) scale(0.25 -0.25)">
       <use xlink:href="#DejaVuSans-31"/>
       <use xlink:href="#DejaVuSans-32" x="63.623047"/>
       <use xlink:href="#DejaVuSans-35" x="127.246094"/>
       <use xlink:href="#DejaVuSans-30" x="190.869141"/>
      </g>
     </g>
    </g>
    <g id="ytick_6">
     <g id="line2d_14">
      <g>
       <use xlink:href="#mba3de4c018" x="106.020313" y="171.318267" style="stroke: #000000; stroke-width: 0.8"/>
      </g>
     </g>
     <g id="text_15">
      <!-- 1500 -->
      <g transform="translate(35.395313 180.816314) scale(0.25 -0.25)">
       <use xlink:href="#DejaVuSans-31"/>
       <use xlink:href="#DejaVuSans-35" x="63.623047"/>
       <use xlink:href="#DejaVuSans-30" x="127.246094"/>
       <use xlink:href="#DejaVuSans-30" x="190.869141"/>
      </g>
     </g>
    </g>
    <g id="ytick_7">
     <g id="line2d_15">
      <g>
       <use xlink:href="#mba3de4c018" x="106.020313" y="126.523956" style="stroke: #000000; stroke-width: 0.8"/>
      </g>
     </g>
     <g id="text_16">
      <!-- 1750 -->
      <g transform="translate(35.395313 136.022002) scale(0.25 -0.25)">
       <use xlink:href="#DejaVuSans-31"/>
       <use xlink:href="#DejaVuSans-37" x="63.623047"/>
       <use xlink:href="#DejaVuSans-35" x="127.246094"/>
       <use xlink:href="#DejaVuSans-30" x="190.869141"/>
      </g>
     </g>
    </g>
    <g id="ytick_8">
     <g id="line2d_16">
      <g>
       <use xlink:href="#mba3de4c018" x="106.020313" y="81.729644" style="stroke: #000000; stroke-width: 0.8"/>
      </g>
     </g>
     <g id="text_17">
      <!-- 2000 -->
      <g transform="translate(35.395313 91.227691) scale(0.25 -0.25)">
       <use xlink:href="#DejaVuSans-32"/>
       <use xlink:href="#DejaVuSans-30" x="63.623047"/>
       <use xlink:href="#DejaVuSans-30" x="127.246094"/>
       <use xlink:href="#DejaVuSans-30" x="190.869141"/>
      </g>
     </g>
    </g>
    <g id="ytick_9">
     <g id="line2d_17">
      <g>
       <use xlink:href="#mba3de4c018" x="106.020313" y="36.935332" style="stroke: #000000; stroke-width: 0.8"/>
      </g>
     </g>
     <g id="text_18">
      <!-- 2250 -->
      <g transform="translate(35.395313 46.433379) scale(0.25 -0.25)">
       <use xlink:href="#DejaVuSans-32"/>
       <use xlink:href="#DejaVuSans-32" x="63.623047"/>
       <use xlink:href="#DejaVuSans-35" x="127.246094"/>
       <use xlink:href="#DejaVuSans-30" x="190.869141"/>
      </g>
     </g>
    </g>
    <g id="text_19">
     <!-- Flow -->
     <g transform="translate(26.196094 254.769297) rotate(-90) scale(0.25 -0.25)">
      <defs>
       <path id="DejaVuSans-46" d="M 628 4666 
L 3309 4666 
L 3309 4134 
L 1259 4134 
L 1259 2759 
L 3109 2759 
L 3109 2228 
L 1259 2228 
L 1259 0 
L 628 0 
L 628 4666 
z
" transform="scale(0.015625)"/>
       <path id="DejaVuSans-6c" d="M 603 4863 
L 1178 4863 
L 1178 0 
L 603 0 
L 603 4863 
z
" transform="scale(0.015625)"/>
       <path id="DejaVuSans-6f" d="M 1959 3097 
Q 1497 3097 1228 2736 
Q 959 2375 959 1747 
Q 959 1119 1226 758 
Q 1494 397 1959 397 
Q 2419 397 2687 759 
Q 2956 1122 2956 1747 
Q 2956 2369 2687 2733 
Q 2419 3097 1959 3097 
z
M 1959 3584 
Q 2709 3584 3137 3096 
Q 3566 2609 3566 1747 
Q 3566 888 3137 398 
Q 2709 -91 1959 -91 
Q 1206 -91 779 398 
Q 353 888 353 1747 
Q 353 2609 779 3096 
Q 1206 3584 1959 3584 
z
" transform="scale(0.015625)"/>
       <path id="DejaVuSans-77" d="M 269 3500 
L 844 3500 
L 1563 769 
L 2278 3500 
L 2956 3500 
L 3675 769 
L 4391 3500 
L 4966 3500 
L 4050 0 
L 3372 0 
L 2619 2869 
L 1863 0 
L 1184 0 
L 269 3500 
z
" transform="scale(0.015625)"/>
      </defs>
      <use xlink:href="#DejaVuSans-46"/>
      <use xlink:href="#DejaVuSans-6c" x="57.519531"/>
      <use xlink:href="#DejaVuSans-6f" x="85.302734"/>
      <use xlink:href="#DejaVuSans-77" x="146.484375"/>
     </g>
    </g>
   </g>
   <g id="line2d_18">
    <path d="M 182.111222 363.933808 
L 192.324766 380.238938 
L 202.538311 355.3333 
L 212.751856 295.846454 
L 222.965401 210.558085 
L 233.178946 189.056815 
L 243.392491 169.16814 
L 253.606036 175.08099 
L 263.81958 132.795159 
L 274.033125 116.49003 
L 284.24667 148.562757 
L 294.460215 120.252752 
L 304.67376 113.981548 
L 314.887305 70.2623 
L 325.100849 71.158186 
L 335.314394 86.746607 
L 345.527939 49.836094 
L 355.741484 84.954834 
L 365.955029 154.117252 
L 376.168574 185.294093 
L 386.382118 177.410294 
L 396.595663 189.773524 
L 406.809208 252.306383 
L 417.022753 325.589877 
L 427.236298 355.3333 
L 437.449843 368.950771 
L 447.663388 329.3526 
L 457.876932 262.877841 
L 468.090477 170.243204 
L 478.304022 117.74427 
L 488.517567 126.703133 
L 498.731112 127.419842 
L 508.944657 129.032437 
L 519.158201 122.582056 
L 529.371746 106.635281 
L 539.585291 99.109837 
L 549.798836 113.085662 
L 560.012381 75.637617 
L 570.225926 103.947622 
L 580.439471 80.117049 
L 590.653015 64.349451 
L 600.86656 53.419639 
L 611.080105 124.732183 
L 621.29365 167.734722 
L 631.507195 166.659659 
L 641.72074 198.194855 
L 651.934284 230.984291 
L 662.147829 283.304047 
L 672.361374 356.766718 
L 682.574919 369.846657 
L 692.788464 341.895007 
L 703.002009 294.413036 
L 713.215554 233.67195 
L 723.429098 195.328019 
L 733.642643 182.785611 
L 743.856188 120.969461 
L 754.069733 138.170477 
L 764.283278 113.802371 
L 774.496823 119.71522 
L 784.710367 107.889522 
L 794.923912 124.553006 
L 805.137457 74.383377 
L 815.351002 77.250213 
L 825.564547 76.175149 
L 835.778092 95.884646 
L 845.991636 141.933199 
L 856.205181 171.318267 
L 866.418726 158.417506 
L 876.632271 152.146302 
L 886.845816 188.877638 
L 897.059361 229.550873 
L 907.272906 240.480685 
L 917.48645 273.807653 
L 927.699995 322.006332 
L 937.91354 325.589877 
L 948.127085 329.890131 
L 958.34063 315.555952 
L 968.554175 293.696327 
L 978.767719 238.509735 
L 988.981264 189.773524 
L 999.194809 146.591807 
L 1009.408354 143.724971 
L 1019.621899 143.904149 
L 1029.835444 142.291553 
L 1040.048989 126.88231 
L 1050.262533 138.528831 
L 1060.476078 128.315728 
L 1070.689623 127.957374 
L 1080.903168 107.35199 
L 1091.116713 125.628069 
L 1101.330258 170.780736 
L 1111.543802 213.424921 
L 1121.757347 201.06169 
L 1131.970892 204.466058 
L 1142.184437 224.354733 
L 1152.397982 248.543661 
L 1162.611527 278.287084 
L 1172.825071 318.960319 
L 1183.038616 320.035383 
L 1193.252161 346.195261 
L 1203.465706 368.592417 
L 1213.679251 344.761843 
L 1223.892796 305.163671 
L 1234.106341 267.178095 
L 1244.319885 189.952701 
L 1254.53343 144.620858 
L 1264.746975 163.434469 
L 1274.96052 159.850924 
L 1285.174065 148.921112 
L 1295.38761 137.27459 
L 1305.601154 128.315728 
L 1315.814699 136.199527 
L 1326.028244 141.933199 
L 1336.241789 134.228577 
L 1346.455334 222.921315 
L 1356.668879 216.650111 
L 1366.882424 191.923651 
L 1377.095968 230.625936 
L 1387.309513 264.132082 
L 1397.523058 328.815068 
L 1407.736603 359.454377 
L 1417.950148 375.221975 
L 1428.163693 364.112986 
L 1438.377237 355.691655 
L 1448.590782 365.008872 
L 1458.804327 336.519689 
L 1469.017872 309.82228 
L 1479.231417 257.323346 
L 1489.444962 207.153717 
L 1499.658507 164.867887 
L 1509.872051 157.700797 
L 1520.085596 157.700797 
L 1530.299141 137.632945 
L 1540.512686 123.119588 
L 1550.726231 137.812122 
L 1560.939776 137.453768 
L 1571.15332 129.211614 
L 1581.366865 223.458846 
L 1591.58041 260.727714 
L 1601.793955 256.964992 
L 1612.0075 279.541325 
L 1622.221045 309.643102 
L 1632.434589 350.853869 
L 1642.648134 378.447165 
L 1652.861679 398.694194 
L 1663.075224 402.636094 
L 1673.288769 368.054885 
L 1683.502314 292.800441 
L 1693.715859 220.233656 
L 1703.929403 179.739598 
L 1703.929403 179.739598 
" clip-path="url(#pf598cc772e)" style="fill: none; stroke: #000000; stroke-width: 1.5; stroke-linecap: square"/>
   </g>
   <g id="line2d_19">
    <path d="M 182.111222 373.913981 
L 192.324766 381.487206 
L 202.538311 349.492122 
L 212.751856 283.7281 
L 222.965401 209.321762 
L 233.178946 180.215345 
L 243.392491 169.507959 
L 253.606036 175.451701 
L 274.033125 152.875368 
L 284.24667 145.65885 
L 294.460215 139.442635 
L 304.67376 150.073818 
L 314.887305 138.708008 
L 325.100849 137.722534 
L 335.314394 107.803023 
L 345.527939 96.836139 
L 355.741484 113.766536 
L 365.955029 175.266139 
L 376.168574 180.659375 
L 386.382118 181.399974 
L 396.595663 205.087206 
L 406.809208 244.303133 
L 417.022753 310.712193 
L 427.236298 358.200136 
L 437.449843 370.993392 
L 447.663388 336.609278 
L 457.876932 281.566028 
L 468.090477 215.575048 
L 478.304022 186.936551 
L 488.517567 179.548064 
L 498.731112 183.496348 
L 508.944657 176.400929 
L 519.158201 157.98748 
L 529.371746 153.358735 
L 539.585291 144.937404 
L 549.798836 149.21974 
L 560.012381 147.159202 
L 570.225926 139.257485 
L 580.439471 112.572021 
L 590.653015 99.515972 
L 600.86656 112.147968 
L 611.080105 166.426729 
L 621.29365 183.018542 
L 631.507195 180.90425 
L 641.72074 195.256348 
L 651.934284 221.929867 
L 662.147829 276.172793 
L 672.361374 338.550365 
L 682.574919 358.755586 
L 692.788464 335.104189 
L 703.002009 294.992376 
L 713.215554 229.927145 
L 723.429098 199.287836 
L 733.642643 186.148171 
L 743.856188 177.156974 
L 754.069733 172.327633 
L 764.283278 151.202635 
L 774.496823 145.134499 
L 784.710367 140.732711 
L 794.923912 148.865505 
L 805.137457 144.113189 
L 815.351002 130.949634 
L 825.564547 119.906343 
L 835.778092 112.506322 
L 845.991636 123.716845 
L 856.205181 163.512112 
L 866.418726 179.542503 
L 876.632271 172.901 
L 886.845816 187.115728 
L 897.059361 214.774722 
L 907.272906 233.313595 
L 917.48645 280.514855 
L 927.699995 311.172082 
L 937.91354 308.012589 
L 948.127085 319.98163 
L 958.34063 315.096063 
L 968.554175 283.614621 
L 978.767719 235.762351 
L 988.981264 199.138521 
L 999.194809 178.586891 
L 1009.408354 161.726312 
L 1019.621899 162.472884 
L 1029.835444 159.026708 
L 1040.048989 168.8345 
L 1050.262533 157.091594 
L 1060.476078 152.642026 
L 1070.689623 139.66362 
L 1080.903168 127.730416 
L 1091.116713 138.516886 
L 1101.330258 169.986383 
L 1111.543802 178.622727 
L 1121.757347 174.298582 
L 1131.970892 177.481965 
L 1142.184437 192.001294 
L 1152.397982 219.355687 
L 1162.611527 259.569034 
L 1172.825071 292.716825 
L 1183.038616 305.522026 
L 1193.252161 333.145185 
L 1203.465706 355.572203 
L 1213.679251 347.371858 
L 1223.892796 305.348821 
L 1234.106341 273.240258 
L 1244.319885 229.001396 
L 1254.53343 190.818725 
L 1264.746975 172.291797 
L 1274.96052 171.819964 
L 1285.174065 165.244159 
L 1295.38761 166.946343 
L 1305.601154 164.593148 
L 1315.814699 155.658176 
L 1326.028244 151.340004 
L 1336.241789 175.236277 
L 1346.455334 210.331127 
L 1356.668879 209.291899 
L 1366.882424 213.872864 
L 1377.095968 249.505246 
L 1387.309513 294.825144 
L 1397.523058 355.434834 
L 1407.736603 385.835241 
L 1417.950148 392.291594 
L 1428.163693 355.876805 
L 1438.377237 296.157028 
L 1448.590782 233.558471 
L 1458.804327 195.142869 
L 1469.017872 185.748008 
L 1479.231417 186.918633 
L 1489.444962 170.308902 
L 1499.658507 158.142767 
L 1509.872051 158.351807 
L 1520.085596 150.187297 
L 1530.299141 143.587602 
L 1540.512686 135.569317 
L 1550.726231 126.506038 
L 1560.939776 112.972183 
L 1571.15332 108.074672 
L 1581.366865 148.078978 
L 1591.58041 201.957577 
L 1601.793955 215.086944 
L 1612.0075 215.85926 
L 1622.221045 250.632003 
L 1642.648134 358.552312 
L 1652.861679 388.660268 
L 1663.075224 392.694846 
L 1673.288769 356.88411 
L 1683.502314 289.130397 
L 1693.715859 218.423348 
L 1703.929403 182.143045 
L 1703.929403 182.143045 
" clip-path="url(#pf598cc772e)" style="fill: none; stroke: #7028e4; stroke-width: 3; stroke-linecap: square"/>
   </g>
   <g id="patch_3">
    <path d="M 106.020313 420.276094 
L 106.020313 32.196094 
" style="fill: none; stroke: #000000; stroke-width: 0.8; stroke-linejoin: miter; stroke-linecap: square"/>
   </g>
   <g id="patch_4">
    <path d="M 1780.020313 420.276094 
L 1780.020313 32.196094 
" style="fill: none; stroke: #000000; stroke-width: 0.8; stroke-linejoin: miter; stroke-linecap: square"/>
   </g>
   <g id="patch_5">
    <path d="M 106.020313 420.276094 
L 1780.020312 420.276094 
" style="fill: none; stroke: #000000; stroke-width: 0.8; stroke-linejoin: miter; stroke-linecap: square"/>
   </g>
   <g id="patch_6">
    <path d="M 106.020313 32.196094 
L 1780.020312 32.196094 
" style="fill: none; stroke: #000000; stroke-width: 0.8; stroke-linejoin: miter; stroke-linecap: square"/>
   </g>
   <g id="text_20">
    <!-- Result of Average_24x7 -->
    <g transform="translate(795.565234 26.196094) scale(0.25 -0.25)">
     <defs>
      <path id="DejaVuSans-52" d="M 2841 2188 
Q 3044 2119 3236 1894 
Q 3428 1669 3622 1275 
L 4263 0 
L 3584 0 
L 2988 1197 
Q 2756 1666 2539 1819 
Q 2322 1972 1947 1972 
L 1259 1972 
L 1259 0 
L 628 0 
L 628 4666 
L 2053 4666 
Q 2853 4666 3247 4331 
Q 3641 3997 3641 3322 
Q 3641 2881 3436 2590 
Q 3231 2300 2841 2188 
z
M 1259 4147 
L 1259 2491 
L 2053 2491 
Q 2509 2491 2742 2702 
Q 2975 2913 2975 3322 
Q 2975 3731 2742 3939 
Q 2509 4147 2053 4147 
L 1259 4147 
z
" transform="scale(0.015625)"/>
      <path id="DejaVuSans-73" d="M 2834 3397 
L 2834 2853 
Q 2591 2978 2328 3040 
Q 2066 3103 1784 3103 
Q 1356 3103 1142 2972 
Q 928 2841 928 2578 
Q 928 2378 1081 2264 
Q 1234 2150 1697 2047 
L 1894 2003 
Q 2506 1872 2764 1633 
Q 3022 1394 3022 966 
Q 3022 478 2636 193 
Q 2250 -91 1575 -91 
Q 1294 -91 989 -36 
Q 684 19 347 128 
L 347 722 
Q 666 556 975 473 
Q 1284 391 1588 391 
Q 1994 391 2212 530 
Q 2431 669 2431 922 
Q 2431 1156 2273 1281 
Q 2116 1406 1581 1522 
L 1381 1569 
Q 847 1681 609 1914 
Q 372 2147 372 2553 
Q 372 3047 722 3315 
Q 1072 3584 1716 3584 
Q 2034 3584 2315 3537 
Q 2597 3491 2834 3397 
z
" transform="scale(0.015625)"/>
      <path id="DejaVuSans-75" d="M 544 1381 
L 544 3500 
L 1119 3500 
L 1119 1403 
Q 1119 906 1312 657 
Q 1506 409 1894 409 
Q 2359 409 2629 706 
Q 2900 1003 2900 1516 
L 2900 3500 
L 3475 3500 
L 3475 0 
L 2900 0 
L 2900 538 
Q 2691 219 2414 64 
Q 2138 -91 1772 -91 
Q 1169 -91 856 284 
Q 544 659 544 1381 
z
M 1991 3584 
L 1991 3584 
z
" transform="scale(0.015625)"/>
      <path id="DejaVuSans-74" d="M 1172 4494 
L 1172 3500 
L 2356 3500 
L 2356 3053 
L 1172 3053 
L 1172 1153 
Q 1172 725 1289 603 
Q 1406 481 1766 481 
L 2356 481 
L 2356 0 
L 1766 0 
Q 1100 0 847 248 
Q 594 497 594 1153 
L 594 3053 
L 172 3053 
L 172 3500 
L 594 3500 
L 594 4494 
L 1172 4494 
z
" transform="scale(0.015625)"/>
      <path id="DejaVuSans-20" transform="scale(0.015625)"/>
      <path id="DejaVuSans-66" d="M 2375 4863 
L 2375 4384 
L 1825 4384 
Q 1516 4384 1395 4259 
Q 1275 4134 1275 3809 
L 1275 3500 
L 2222 3500 
L 2222 3053 
L 1275 3053 
L 1275 0 
L 697 0 
L 697 3053 
L 147 3053 
L 147 3500 
L 697 3500 
L 697 3744 
Q 697 4328 969 4595 
Q 1241 4863 1831 4863 
L 2375 4863 
z
" transform="scale(0.015625)"/>
      <path id="DejaVuSans-41" d="M 2188 4044 
L 1331 1722 
L 3047 1722 
L 2188 4044 
z
M 1831 4666 
L 2547 4666 
L 4325 0 
L 3669 0 
L 3244 1197 
L 1141 1197 
L 716 0 
L 50 0 
L 1831 4666 
z
" transform="scale(0.015625)"/>
      <path id="DejaVuSans-76" d="M 191 3500 
L 800 3500 
L 1894 563 
L 2988 3500 
L 3597 3500 
L 2284 0 
L 1503 0 
L 191 3500 
z
" transform="scale(0.015625)"/>
      <path id="DejaVuSans-72" d="M 2631 2963 
Q 2534 3019 2420 3045 
Q 2306 3072 2169 3072 
Q 1681 3072 1420 2755 
Q 1159 2438 1159 1844 
L 1159 0 
L 581 0 
L 581 3500 
L 1159 3500 
L 1159 2956 
Q 1341 3275 1631 3429 
Q 1922 3584 2338 3584 
Q 2397 3584 2469 3576 
Q 2541 3569 2628 3553 
L 2631 2963 
z
" transform="scale(0.015625)"/>
      <path id="DejaVuSans-61" d="M 2194 1759 
Q 1497 1759 1228 1600 
Q 959 1441 959 1056 
Q 959 750 1161 570 
Q 1363 391 1709 391 
Q 2188 391 2477 730 
Q 2766 1069 2766 1631 
L 2766 1759 
L 2194 1759 
z
M 3341 1997 
L 3341 0 
L 2766 0 
L 2766 531 
Q 2569 213 2275 61 
Q 1981 -91 1556 -91 
Q 1019 -91 701 211 
Q 384 513 384 1019 
Q 384 1609 779 1909 
Q 1175 2209 1959 2209 
L 2766 2209 
L 2766 2266 
Q 2766 2663 2505 2880 
Q 2244 3097 1772 3097 
Q 1472 3097 1187 3025 
Q 903 2953 641 2809 
L 641 3341 
Q 956 3463 1253 3523 
Q 1550 3584 1831 3584 
Q 2591 3584 2966 3190 
Q 3341 2797 3341 1997 
z
" transform="scale(0.015625)"/>
      <path id="DejaVuSans-67" d="M 2906 1791 
Q 2906 2416 2648 2759 
Q 2391 3103 1925 3103 
Q 1463 3103 1205 2759 
Q 947 2416 947 1791 
Q 947 1169 1205 825 
Q 1463 481 1925 481 
Q 2391 481 2648 825 
Q 2906 1169 2906 1791 
z
M 3481 434 
Q 3481 -459 3084 -895 
Q 2688 -1331 1869 -1331 
Q 1566 -1331 1297 -1286 
Q 1028 -1241 775 -1147 
L 775 -588 
Q 1028 -725 1275 -790 
Q 1522 -856 1778 -856 
Q 2344 -856 2625 -561 
Q 2906 -266 2906 331 
L 2906 616 
Q 2728 306 2450 153 
Q 2172 0 1784 0 
Q 1141 0 747 490 
Q 353 981 353 1791 
Q 353 2603 747 3093 
Q 1141 3584 1784 3584 
Q 2172 3584 2450 3431 
Q 2728 3278 2906 2969 
L 2906 3500 
L 3481 3500 
L 3481 434 
z
" transform="scale(0.015625)"/>
      <path id="DejaVuSans-5f" d="M 3263 -1063 
L 3263 -1509 
L -63 -1509 
L -63 -1063 
L 3263 -1063 
z
" transform="scale(0.015625)"/>
      <path id="DejaVuSans-78" d="M 3513 3500 
L 2247 1797 
L 3578 0 
L 2900 0 
L 1881 1375 
L 863 0 
L 184 0 
L 1544 1831 
L 300 3500 
L 978 3500 
L 1906 2253 
L 2834 3500 
L 3513 3500 
z
" transform="scale(0.015625)"/>
     </defs>
     <use xlink:href="#DejaVuSans-52"/>
     <use xlink:href="#DejaVuSans-65" x="64.982422"/>
     <use xlink:href="#DejaVuSans-73" x="126.505859"/>
     <use xlink:href="#DejaVuSans-75" x="178.605469"/>
     <use xlink:href="#DejaVuSans-6c" x="241.984375"/>
     <use xlink:href="#DejaVuSans-74" x="269.767578"/>
     <use xlink:href="#DejaVuSans-20" x="308.976562"/>
     <use xlink:href="#DejaVuSans-6f" x="340.763672"/>
     <use xlink:href="#DejaVuSans-66" x="401.945312"/>
     <use xlink:href="#DejaVuSans-20" x="437.150391"/>
     <use xlink:href="#DejaVuSans-41" x="468.9375"/>
     <use xlink:href="#DejaVuSans-76" x="531.470703"/>
     <use xlink:href="#DejaVuSans-65" x="590.650391"/>
     <use xlink:href="#DejaVuSans-72" x="652.173828"/>
     <use xlink:href="#DejaVuSans-61" x="693.287109"/>
     <use xlink:href="#DejaVuSans-67" x="754.566406"/>
     <use xlink:href="#DejaVuSans-65" x="818.042969"/>
     <use xlink:href="#DejaVuSans-5f" x="879.566406"/>
     <use xlink:href="#DejaVuSans-32" x="929.566406"/>
     <use xlink:href="#DejaVuSans-34" x="993.189453"/>
     <use xlink:href="#DejaVuSans-78" x="1056.8125"/>
     <use xlink:href="#DejaVuSans-37" x="1115.992188"/>
    </g>
   </g>
   <g id="legend_1">
    <g id="patch_7">
     <path d="M 814.180469 407.776094 
L 1071.860156 407.776094 
Q 1076.860156 407.776094 1076.860156 402.776094 
L 1076.860156 331.190156 
Q 1076.860156 326.190156 1071.860156 326.190156 
L 814.180469 326.190156 
Q 809.180469 326.190156 809.180469 331.190156 
L 809.180469 402.776094 
Q 809.180469 407.776094 814.180469 407.776094 
z
" style="fill: #ffffff; opacity: 0.8; stroke: #cccccc; stroke-linejoin: miter"/>
    </g>
    <g id="line2d_20">
     <path d="M 819.180469 346.43625 
L 844.180469 346.43625 
L 869.180469 346.43625 
" style="fill: none; stroke: #000000; stroke-width: 1.5; stroke-linecap: square"/>
    </g>
    <g id="text_21">
     <!-- fact -->
     <g transform="translate(889.180469 355.18625) scale(0.25 -0.25)">
      <defs>
       <path id="DejaVuSans-63" d="M 3122 3366 
L 3122 2828 
Q 2878 2963 2633 3030 
Q 2388 3097 2138 3097 
Q 1578 3097 1268 2742 
Q 959 2388 959 1747 
Q 959 1106 1268 751 
Q 1578 397 2138 397 
Q 2388 397 2633 464 
Q 2878 531 3122 666 
L 3122 134 
Q 2881 22 2623 -34 
Q 2366 -91 2075 -91 
Q 1284 -91 818 406 
Q 353 903 353 1747 
Q 353 2603 823 3093 
Q 1294 3584 2113 3584 
Q 2378 3584 2631 3529 
Q 2884 3475 3122 3366 
z
" transform="scale(0.015625)"/>
      </defs>
      <use xlink:href="#DejaVuSans-66"/>
      <use xlink:href="#DejaVuSans-61" x="35.205078"/>
      <use xlink:href="#DejaVuSans-63" x="96.484375"/>
      <use xlink:href="#DejaVuSans-74" x="151.464844"/>
     </g>
    </g>
    <g id="line2d_21">
     <path d="M 819.180469 383.131562 
L 844.180469 383.131562 
L 869.180469 383.131562 
" style="fill: none; stroke: #7028e4; stroke-width: 3; stroke-linecap: square"/>
    </g>
    <g id="text_22">
     <!-- Average_24x7 -->
     <g transform="translate(889.180469 391.881562) scale(0.25 -0.25)">
      <use xlink:href="#DejaVuSans-41"/>
      <use xlink:href="#DejaVuSans-76" x="62.533203"/>
      <use xlink:href="#DejaVuSans-65" x="121.712891"/>
      <use xlink:href="#DejaVuSans-72" x="183.236328"/>
      <use xlink:href="#DejaVuSans-61" x="224.349609"/>
      <use xlink:href="#DejaVuSans-67" x="285.628906"/>
      <use xlink:href="#DejaVuSans-65" x="349.105469"/>
      <use xlink:href="#DejaVuSans-5f" x="410.628906"/>
      <use xlink:href="#DejaVuSans-32" x="460.628906"/>
      <use xlink:href="#DejaVuSans-34" x="524.251953"/>
      <use xlink:href="#DejaVuSans-78" x="587.875"/>
      <use xlink:href="#DejaVuSans-37" x="647.054688"/>
     </g>
    </g>
   </g>
  </g>
 </g>
 <defs>
  <clipPath id="pf598cc772e">
   <rect x="106.020313" y="32.196094" width="1674" height="388.08"/>
  </clipPath>
 </defs>
</svg>
